<?xml version="1.0" encoding="utf-8" standalone="no"?>
<!DOCTYPE svg PUBLIC "-//W3C//DTD SVG 1.1//EN"
  "http://www.w3.org/Graphics/SVG/1.1/DTD/svg11.dtd">
<!-- Created with matplotlib (https://matplotlib.org/) -->
<svg height="248.518125pt" version="1.1" viewBox="0 0 378.062023 248.518125" width="378.062023pt" xmlns="http://www.w3.org/2000/svg" xmlns:xlink="http://www.w3.org/1999/xlink">
 <defs>
  <style type="text/css">
*{stroke-linecap:butt;stroke-linejoin:round;}
  </style>
 </defs>
 <g id="figure_1">
  <g id="patch_1">
   <path d="M 0 248.518125 
L 378.062023 248.518125 
L 378.062023 0 
L 0 0 
z
" style="fill:none;"/>
  </g>
  <g id="axes_1">
   <g id="patch_2">
    <path d="M 33.2875 224.64 
L 368.0875 224.64 
L 368.0875 7.2 
L 33.2875 7.2 
z
" style="fill:#ffffff;"/>
   </g>
   <g id="matplotlib.axis_1">
    <g id="xtick_1">
     <g id="line2d_1">
      <defs>
       <path d="M 0 0 
L 0 3.5 
" id="m271b386676" style="stroke:#000000;stroke-width:0.8;"/>
      </defs>
      <g>
       <use style="stroke:#000000;stroke-width:0.8;" x="47.677481" xlink:href="#m271b386676" y="224.64"/>
      </g>
     </g>
     <g id="text_1">
      <!-- 2016-10 -->
      <defs>
       <path d="M 19.1875 8.296875 
L 53.609375 8.296875 
L 53.609375 0 
L 7.328125 0 
L 7.328125 8.296875 
Q 12.9375 14.109375 22.625 23.890625 
Q 32.328125 33.6875 34.8125 36.53125 
Q 39.546875 41.84375 41.421875 45.53125 
Q 43.3125 49.21875 43.3125 52.78125 
Q 43.3125 58.59375 39.234375 62.25 
Q 35.15625 65.921875 28.609375 65.921875 
Q 23.96875 65.921875 18.8125 64.3125 
Q 13.671875 62.703125 7.8125 59.421875 
L 7.8125 69.390625 
Q 13.765625 71.78125 18.9375 73 
Q 24.125 74.21875 28.421875 74.21875 
Q 39.75 74.21875 46.484375 68.546875 
Q 53.21875 62.890625 53.21875 53.421875 
Q 53.21875 48.921875 51.53125 44.890625 
Q 49.859375 40.875 45.40625 35.40625 
Q 44.1875 33.984375 37.640625 27.21875 
Q 31.109375 20.453125 19.1875 8.296875 
z
" id="DejaVuSans-50"/>
       <path d="M 31.78125 66.40625 
Q 24.171875 66.40625 20.328125 58.90625 
Q 16.5 51.421875 16.5 36.375 
Q 16.5 21.390625 20.328125 13.890625 
Q 24.171875 6.390625 31.78125 6.390625 
Q 39.453125 6.390625 43.28125 13.890625 
Q 47.125 21.390625 47.125 36.375 
Q 47.125 51.421875 43.28125 58.90625 
Q 39.453125 66.40625 31.78125 66.40625 
z
M 31.78125 74.21875 
Q 44.046875 74.21875 50.515625 64.515625 
Q 56.984375 54.828125 56.984375 36.375 
Q 56.984375 17.96875 50.515625 8.265625 
Q 44.046875 -1.421875 31.78125 -1.421875 
Q 19.53125 -1.421875 13.0625 8.265625 
Q 6.59375 17.96875 6.59375 36.375 
Q 6.59375 54.828125 13.0625 64.515625 
Q 19.53125 74.21875 31.78125 74.21875 
z
" id="DejaVuSans-48"/>
       <path d="M 12.40625 8.296875 
L 28.515625 8.296875 
L 28.515625 63.921875 
L 10.984375 60.40625 
L 10.984375 69.390625 
L 28.421875 72.90625 
L 38.28125 72.90625 
L 38.28125 8.296875 
L 54.390625 8.296875 
L 54.390625 0 
L 12.40625 0 
z
" id="DejaVuSans-49"/>
       <path d="M 33.015625 40.375 
Q 26.375 40.375 22.484375 35.828125 
Q 18.609375 31.296875 18.609375 23.390625 
Q 18.609375 15.53125 22.484375 10.953125 
Q 26.375 6.390625 33.015625 6.390625 
Q 39.65625 6.390625 43.53125 10.953125 
Q 47.40625 15.53125 47.40625 23.390625 
Q 47.40625 31.296875 43.53125 35.828125 
Q 39.65625 40.375 33.015625 40.375 
z
M 52.59375 71.296875 
L 52.59375 62.3125 
Q 48.875 64.0625 45.09375 64.984375 
Q 41.3125 65.921875 37.59375 65.921875 
Q 27.828125 65.921875 22.671875 59.328125 
Q 17.53125 52.734375 16.796875 39.40625 
Q 19.671875 43.65625 24.015625 45.921875 
Q 28.375 48.1875 33.59375 48.1875 
Q 44.578125 48.1875 50.953125 41.515625 
Q 57.328125 34.859375 57.328125 23.390625 
Q 57.328125 12.15625 50.6875 5.359375 
Q 44.046875 -1.421875 33.015625 -1.421875 
Q 20.359375 -1.421875 13.671875 8.265625 
Q 6.984375 17.96875 6.984375 36.375 
Q 6.984375 53.65625 15.1875 63.9375 
Q 23.390625 74.21875 37.203125 74.21875 
Q 40.921875 74.21875 44.703125 73.484375 
Q 48.484375 72.75 52.59375 71.296875 
z
" id="DejaVuSans-54"/>
       <path d="M 4.890625 31.390625 
L 31.203125 31.390625 
L 31.203125 23.390625 
L 4.890625 23.390625 
z
" id="DejaVuSans-45"/>
      </defs>
      <g transform="translate(26.786075 239.238437)scale(0.1 -0.1)">
       <use xlink:href="#DejaVuSans-50"/>
       <use x="63.623047" xlink:href="#DejaVuSans-48"/>
       <use x="127.246094" xlink:href="#DejaVuSans-49"/>
       <use x="190.869141" xlink:href="#DejaVuSans-54"/>
       <use x="254.492188" xlink:href="#DejaVuSans-45"/>
       <use x="290.576172" xlink:href="#DejaVuSans-49"/>
       <use x="354.199219" xlink:href="#DejaVuSans-48"/>
      </g>
     </g>
    </g>
    <g id="xtick_2">
     <g id="line2d_2">
      <g>
       <use style="stroke:#000000;stroke-width:0.8;" x="85.774699" xlink:href="#m271b386676" y="224.64"/>
      </g>
     </g>
     <g id="text_2">
      <!-- 2017-01 -->
      <defs>
       <path d="M 8.203125 72.90625 
L 55.078125 72.90625 
L 55.078125 68.703125 
L 28.609375 0 
L 18.3125 0 
L 43.21875 64.59375 
L 8.203125 64.59375 
z
" id="DejaVuSans-55"/>
      </defs>
      <g transform="translate(64.883292 239.238437)scale(0.1 -0.1)">
       <use xlink:href="#DejaVuSans-50"/>
       <use x="63.623047" xlink:href="#DejaVuSans-48"/>
       <use x="127.246094" xlink:href="#DejaVuSans-49"/>
       <use x="190.869141" xlink:href="#DejaVuSans-55"/>
       <use x="254.492188" xlink:href="#DejaVuSans-45"/>
       <use x="290.576172" xlink:href="#DejaVuSans-48"/>
       <use x="354.199219" xlink:href="#DejaVuSans-49"/>
      </g>
     </g>
    </g>
    <g id="xtick_3">
     <g id="line2d_3">
      <g>
       <use style="stroke:#000000;stroke-width:0.8;" x="123.043715" xlink:href="#m271b386676" y="224.64"/>
      </g>
     </g>
     <g id="text_3">
      <!-- 2017-04 -->
      <defs>
       <path d="M 37.796875 64.3125 
L 12.890625 25.390625 
L 37.796875 25.390625 
z
M 35.203125 72.90625 
L 47.609375 72.90625 
L 47.609375 25.390625 
L 58.015625 25.390625 
L 58.015625 17.1875 
L 47.609375 17.1875 
L 47.609375 0 
L 37.796875 0 
L 37.796875 17.1875 
L 4.890625 17.1875 
L 4.890625 26.703125 
z
" id="DejaVuSans-52"/>
      </defs>
      <g transform="translate(102.152309 239.238437)scale(0.1 -0.1)">
       <use xlink:href="#DejaVuSans-50"/>
       <use x="63.623047" xlink:href="#DejaVuSans-48"/>
       <use x="127.246094" xlink:href="#DejaVuSans-49"/>
       <use x="190.869141" xlink:href="#DejaVuSans-55"/>
       <use x="254.492188" xlink:href="#DejaVuSans-45"/>
       <use x="290.576172" xlink:href="#DejaVuSans-48"/>
       <use x="354.199219" xlink:href="#DejaVuSans-52"/>
      </g>
     </g>
    </g>
    <g id="xtick_4">
     <g id="line2d_4">
      <g>
       <use style="stroke:#000000;stroke-width:0.8;" x="160.726832" xlink:href="#m271b386676" y="224.64"/>
      </g>
     </g>
     <g id="text_4">
      <!-- 2017-07 -->
      <g transform="translate(139.835426 239.238437)scale(0.1 -0.1)">
       <use xlink:href="#DejaVuSans-50"/>
       <use x="63.623047" xlink:href="#DejaVuSans-48"/>
       <use x="127.246094" xlink:href="#DejaVuSans-49"/>
       <use x="190.869141" xlink:href="#DejaVuSans-55"/>
       <use x="254.492188" xlink:href="#DejaVuSans-45"/>
       <use x="290.576172" xlink:href="#DejaVuSans-48"/>
       <use x="354.199219" xlink:href="#DejaVuSans-55"/>
      </g>
     </g>
    </g>
    <g id="xtick_5">
     <g id="line2d_5">
      <g>
       <use style="stroke:#000000;stroke-width:0.8;" x="198.824049" xlink:href="#m271b386676" y="224.64"/>
      </g>
     </g>
     <g id="text_5">
      <!-- 2017-10 -->
      <g transform="translate(177.932643 239.238437)scale(0.1 -0.1)">
       <use xlink:href="#DejaVuSans-50"/>
       <use x="63.623047" xlink:href="#DejaVuSans-48"/>
       <use x="127.246094" xlink:href="#DejaVuSans-49"/>
       <use x="190.869141" xlink:href="#DejaVuSans-55"/>
       <use x="254.492188" xlink:href="#DejaVuSans-45"/>
       <use x="290.576172" xlink:href="#DejaVuSans-49"/>
       <use x="354.199219" xlink:href="#DejaVuSans-48"/>
      </g>
     </g>
    </g>
    <g id="xtick_6">
     <g id="line2d_6">
      <g>
       <use style="stroke:#000000;stroke-width:0.8;" x="236.921266" xlink:href="#m271b386676" y="224.64"/>
      </g>
     </g>
     <g id="text_6">
      <!-- 2018-01 -->
      <defs>
       <path d="M 31.78125 34.625 
Q 24.75 34.625 20.71875 30.859375 
Q 16.703125 27.09375 16.703125 20.515625 
Q 16.703125 13.921875 20.71875 10.15625 
Q 24.75 6.390625 31.78125 6.390625 
Q 38.8125 6.390625 42.859375 10.171875 
Q 46.921875 13.96875 46.921875 20.515625 
Q 46.921875 27.09375 42.890625 30.859375 
Q 38.875 34.625 31.78125 34.625 
z
M 21.921875 38.8125 
Q 15.578125 40.375 12.03125 44.71875 
Q 8.5 49.078125 8.5 55.328125 
Q 8.5 64.0625 14.71875 69.140625 
Q 20.953125 74.21875 31.78125 74.21875 
Q 42.671875 74.21875 48.875 69.140625 
Q 55.078125 64.0625 55.078125 55.328125 
Q 55.078125 49.078125 51.53125 44.71875 
Q 48 40.375 41.703125 38.8125 
Q 48.828125 37.15625 52.796875 32.3125 
Q 56.78125 27.484375 56.78125 20.515625 
Q 56.78125 9.90625 50.3125 4.234375 
Q 43.84375 -1.421875 31.78125 -1.421875 
Q 19.734375 -1.421875 13.25 4.234375 
Q 6.78125 9.90625 6.78125 20.515625 
Q 6.78125 27.484375 10.78125 32.3125 
Q 14.796875 37.15625 21.921875 38.8125 
z
M 18.3125 54.390625 
Q 18.3125 48.734375 21.84375 45.5625 
Q 25.390625 42.390625 31.78125 42.390625 
Q 38.140625 42.390625 41.71875 45.5625 
Q 45.3125 48.734375 45.3125 54.390625 
Q 45.3125 60.0625 41.71875 63.234375 
Q 38.140625 66.40625 31.78125 66.40625 
Q 25.390625 66.40625 21.84375 63.234375 
Q 18.3125 60.0625 18.3125 54.390625 
z
" id="DejaVuSans-56"/>
      </defs>
      <g transform="translate(216.02986 239.238437)scale(0.1 -0.1)">
       <use xlink:href="#DejaVuSans-50"/>
       <use x="63.623047" xlink:href="#DejaVuSans-48"/>
       <use x="127.246094" xlink:href="#DejaVuSans-49"/>
       <use x="190.869141" xlink:href="#DejaVuSans-56"/>
       <use x="254.492188" xlink:href="#DejaVuSans-45"/>
       <use x="290.576172" xlink:href="#DejaVuSans-48"/>
       <use x="354.199219" xlink:href="#DejaVuSans-49"/>
      </g>
     </g>
    </g>
    <g id="xtick_7">
     <g id="line2d_7">
      <g>
       <use style="stroke:#000000;stroke-width:0.8;" x="274.190283" xlink:href="#m271b386676" y="224.64"/>
      </g>
     </g>
     <g id="text_7">
      <!-- 2018-04 -->
      <g transform="translate(253.298877 239.238437)scale(0.1 -0.1)">
       <use xlink:href="#DejaVuSans-50"/>
       <use x="63.623047" xlink:href="#DejaVuSans-48"/>
       <use x="127.246094" xlink:href="#DejaVuSans-49"/>
       <use x="190.869141" xlink:href="#DejaVuSans-56"/>
       <use x="254.492188" xlink:href="#DejaVuSans-45"/>
       <use x="290.576172" xlink:href="#DejaVuSans-48"/>
       <use x="354.199219" xlink:href="#DejaVuSans-52"/>
      </g>
     </g>
    </g>
    <g id="xtick_8">
     <g id="line2d_8">
      <g>
       <use style="stroke:#000000;stroke-width:0.8;" x="311.8734" xlink:href="#m271b386676" y="224.64"/>
      </g>
     </g>
     <g id="text_8">
      <!-- 2018-07 -->
      <g transform="translate(290.981994 239.238437)scale(0.1 -0.1)">
       <use xlink:href="#DejaVuSans-50"/>
       <use x="63.623047" xlink:href="#DejaVuSans-48"/>
       <use x="127.246094" xlink:href="#DejaVuSans-49"/>
       <use x="190.869141" xlink:href="#DejaVuSans-56"/>
       <use x="254.492188" xlink:href="#DejaVuSans-45"/>
       <use x="290.576172" xlink:href="#DejaVuSans-48"/>
       <use x="354.199219" xlink:href="#DejaVuSans-55"/>
      </g>
     </g>
    </g>
    <g id="xtick_9">
     <g id="line2d_9">
      <g>
       <use style="stroke:#000000;stroke-width:0.8;" x="349.970617" xlink:href="#m271b386676" y="224.64"/>
      </g>
     </g>
     <g id="text_9">
      <!-- 2018-10 -->
      <g transform="translate(329.079211 239.238437)scale(0.1 -0.1)">
       <use xlink:href="#DejaVuSans-50"/>
       <use x="63.623047" xlink:href="#DejaVuSans-48"/>
       <use x="127.246094" xlink:href="#DejaVuSans-49"/>
       <use x="190.869141" xlink:href="#DejaVuSans-56"/>
       <use x="254.492188" xlink:href="#DejaVuSans-45"/>
       <use x="290.576172" xlink:href="#DejaVuSans-49"/>
       <use x="354.199219" xlink:href="#DejaVuSans-48"/>
      </g>
     </g>
    </g>
   </g>
   <g id="matplotlib.axis_2">
    <g id="ytick_1">
     <g id="line2d_10">
      <defs>
       <path d="M 0 0 
L -3.5 0 
" id="m0206ff55a7" style="stroke:#000000;stroke-width:0.8;"/>
      </defs>
      <g>
       <use style="stroke:#000000;stroke-width:0.8;" x="33.2875" xlink:href="#m0206ff55a7" y="182.006408"/>
      </g>
     </g>
     <g id="text_10">
      <!-- 150 -->
      <defs>
       <path d="M 10.796875 72.90625 
L 49.515625 72.90625 
L 49.515625 64.59375 
L 19.828125 64.59375 
L 19.828125 46.734375 
Q 21.96875 47.46875 24.109375 47.828125 
Q 26.265625 48.1875 28.421875 48.1875 
Q 40.625 48.1875 47.75 41.5 
Q 54.890625 34.8125 54.890625 23.390625 
Q 54.890625 11.625 47.5625 5.09375 
Q 40.234375 -1.421875 26.90625 -1.421875 
Q 22.3125 -1.421875 17.546875 -0.640625 
Q 12.796875 0.140625 7.71875 1.703125 
L 7.71875 11.625 
Q 12.109375 9.234375 16.796875 8.0625 
Q 21.484375 6.890625 26.703125 6.890625 
Q 35.15625 6.890625 40.078125 11.328125 
Q 45.015625 15.765625 45.015625 23.390625 
Q 45.015625 31 40.078125 35.4375 
Q 35.15625 39.890625 26.703125 39.890625 
Q 22.75 39.890625 18.8125 39.015625 
Q 14.890625 38.140625 10.796875 36.28125 
z
" id="DejaVuSans-53"/>
      </defs>
      <g transform="translate(7.2 185.805627)scale(0.1 -0.1)">
       <use xlink:href="#DejaVuSans-49"/>
       <use x="63.623047" xlink:href="#DejaVuSans-53"/>
       <use x="127.246094" xlink:href="#DejaVuSans-48"/>
      </g>
     </g>
    </g>
    <g id="ytick_2">
     <g id="line2d_11">
      <g>
       <use style="stroke:#000000;stroke-width:0.8;" x="33.2875" xlink:href="#m0206ff55a7" y="135.0867"/>
      </g>
     </g>
     <g id="text_11">
      <!-- 200 -->
      <g transform="translate(7.2 138.885919)scale(0.1 -0.1)">
       <use xlink:href="#DejaVuSans-50"/>
       <use x="63.623047" xlink:href="#DejaVuSans-48"/>
       <use x="127.246094" xlink:href="#DejaVuSans-48"/>
      </g>
     </g>
    </g>
    <g id="ytick_3">
     <g id="line2d_12">
      <g>
       <use style="stroke:#000000;stroke-width:0.8;" x="33.2875" xlink:href="#m0206ff55a7" y="88.166993"/>
      </g>
     </g>
     <g id="text_12">
      <!-- 250 -->
      <g transform="translate(7.2 91.966212)scale(0.1 -0.1)">
       <use xlink:href="#DejaVuSans-50"/>
       <use x="63.623047" xlink:href="#DejaVuSans-53"/>
       <use x="127.246094" xlink:href="#DejaVuSans-48"/>
      </g>
     </g>
    </g>
    <g id="ytick_4">
     <g id="line2d_13">
      <g>
       <use style="stroke:#000000;stroke-width:0.8;" x="33.2875" xlink:href="#m0206ff55a7" y="41.247286"/>
      </g>
     </g>
     <g id="text_13">
      <!-- 300 -->
      <defs>
       <path d="M 40.578125 39.3125 
Q 47.65625 37.796875 51.625 33 
Q 55.609375 28.21875 55.609375 21.1875 
Q 55.609375 10.40625 48.1875 4.484375 
Q 40.765625 -1.421875 27.09375 -1.421875 
Q 22.515625 -1.421875 17.65625 -0.515625 
Q 12.796875 0.390625 7.625 2.203125 
L 7.625 11.71875 
Q 11.71875 9.328125 16.59375 8.109375 
Q 21.484375 6.890625 26.8125 6.890625 
Q 36.078125 6.890625 40.9375 10.546875 
Q 45.796875 14.203125 45.796875 21.1875 
Q 45.796875 27.640625 41.28125 31.265625 
Q 36.765625 34.90625 28.71875 34.90625 
L 20.21875 34.90625 
L 20.21875 43.015625 
L 29.109375 43.015625 
Q 36.375 43.015625 40.234375 45.921875 
Q 44.09375 48.828125 44.09375 54.296875 
Q 44.09375 59.90625 40.109375 62.90625 
Q 36.140625 65.921875 28.71875 65.921875 
Q 24.65625 65.921875 20.015625 65.03125 
Q 15.375 64.15625 9.8125 62.3125 
L 9.8125 71.09375 
Q 15.4375 72.65625 20.34375 73.4375 
Q 25.25 74.21875 29.59375 74.21875 
Q 40.828125 74.21875 47.359375 69.109375 
Q 53.90625 64.015625 53.90625 55.328125 
Q 53.90625 49.265625 50.4375 45.09375 
Q 46.96875 40.921875 40.578125 39.3125 
z
" id="DejaVuSans-51"/>
      </defs>
      <g transform="translate(7.2 45.046504)scale(0.1 -0.1)">
       <use xlink:href="#DejaVuSans-51"/>
       <use x="63.623047" xlink:href="#DejaVuSans-48"/>
       <use x="127.246094" xlink:href="#DejaVuSans-48"/>
      </g>
     </g>
    </g>
   </g>
   <g id="line2d_14">
    <path clip-path="url(#p8d47d53bf6)" d="M 48.505682 189.185123 
L 48.919782 189.70124 
L 49.333882 178.909707 
L 49.747982 181.161853 
L 50.162083 180.833415 
L 51.404383 180.458058 
L 52.646684 184.023955 
L 53.060784 179.003547 
L 54.303084 181.771809 
L 54.717185 180.223459 
L 55.131285 177.689795 
L 55.545385 179.801182 
L 55.959485 179.660423 
L 57.201786 178.205912 
L 58.029986 186.323021 
L 58.444086 193.501736 
L 58.858186 191.437269 
L 59.686387 191.953386 
L 60.514587 192.704101 
L 61.756888 203.730232 
L 62.999188 202.651079 
L 63.413288 203.167196 
L 63.827389 208.375283 
L 64.241489 205.090904 
L 64.655589 211.425064 
L 66.31199 212.973415 
L 66.72609 208.93832 
L 67.14019 211.471984 
L 67.55429 210.064393 
L 68.796591 214.240247 
L 69.210691 212.691897 
L 69.624791 212.363459 
L 70.038891 214.756364 
L 70.452992 211.565824 
L 72.109392 208.328364 
L 72.523493 206.545415 
L 72.937593 208.375283 
L 73.351693 208.703721 
L 74.593994 206.733094 
L 75.008094 206.967692 
L 75.422194 207.999926 
L 75.836294 206.545415 
L 76.250394 206.498495 
L 77.492695 207.014612 
L 77.906795 207.014612 
L 78.320895 207.577648 
L 78.734995 205.982378 
L 79.149096 206.123137 
L 80.391396 206.123137 
L 80.805496 208.98524 
L 81.219596 208.656802 
L 81.633697 210.721269 
L 82.047797 211.237386 
L 83.290097 212.973415 
L 83.704198 209.642116 
L 84.118298 210.53359 
L 84.532398 209.125999 
L 84.946498 208.281444 
L 86.188799 206.826933 
L 86.602899 205.982378 
L 87.016999 205.982378 
L 87.431099 205.278583 
L 87.845199 205.7947 
L 89.0875 205.70086 
L 89.5016 205.982378 
L 89.9157 203.073356 
L 90.329801 205.325502 
L 90.743901 202.322641 
L 91.986201 202.979517 
L 92.400301 203.026437 
L 92.814402 202.041123 
L 93.228502 200.305094 
L 93.642602 204.15251 
L 95.299003 202.228802 
L 95.713103 202.322641 
L 97.783604 200.352013 
L 98.197704 201.853444 
L 98.611804 200.680451 
L 99.025904 193.595576 
L 99.440005 189.65432 
L 100.682305 188.809765 
L 101.096405 189.841999 
L 101.510506 185.619225 
L 101.924606 187.730612 
L 102.338706 187.683692 
L 103.995107 190.264276 
L 104.409207 192.563342 
L 104.823307 191.29651 
L 105.237407 191.24959 
L 106.479708 189.888919 
L 106.893808 189.888919 
L 107.307908 191.390349 
L 107.722008 192.094145 
L 109.378409 192.422583 
L 109.792509 193.220218 
L 110.206609 188.01213 
L 110.62071 190.358116 
L 111.03481 188.246729 
L 112.27711 188.340568 
L 112.691211 188.809765 
L 113.105311 190.076598 
L 113.519411 190.639634 
L 113.933511 194.111692 
L 115.589912 191.859546 
L 116.004012 190.545795 
L 116.418112 186.979897 
L 116.832212 186.886057 
L 118.074513 185.337707 
L 118.488613 185.853824 
L 118.902713 188.481327 
L 119.316814 180.504977 
L 119.730914 180.927255 
L 120.973214 183.32016 
L 121.387314 181.490291 
L 121.801415 181.443371 
L 122.215515 181.865649 
L 125.114216 179.144306 
L 125.528316 181.443371 
L 126.770617 181.114933 
L 127.184717 178.815868 
L 128.012917 181.537211 
L 129.669318 182.522525 
L 130.083418 183.742437 
L 130.911619 179.98886 
L 131.325719 180.786495 
L 132.568019 180.176539 
L 132.98212 180.411138 
L 133.39622 178.48743 
L 133.81032 180.03578 
L 134.22442 179.097386 
L 135.880821 174.780773 
L 136.294921 176.188364 
L 136.709021 176.985999 
L 137.123122 179.848101 
L 138.365422 179.566583 
L 138.779522 178.205912 
L 139.193622 177.455196 
L 139.607723 178.252831 
L 140.021823 179.519663 
L 141.264123 177.689795 
L 141.678224 177.830554 
L 142.092324 179.331985 
L 142.506424 184.352393 
L 142.920524 182.475605 
L 144.162825 184.070875 
L 144.991025 189.795079 
L 145.405125 188.528247 
L 145.819225 184.91543 
L 147.061526 186.323021 
L 147.475626 186.182262 
L 148.303827 179.754262 
L 148.717927 177.455196 
L 149.960227 177.361357 
L 150.374327 179.191225 
L 150.788428 176.79832 
L 151.202528 177.689795 
L 151.616628 177.877474 
L 152.858929 180.03578 
L 153.273029 175.953766 
L 153.687129 174.076977 
L 154.101229 173.467021 
L 154.515329 174.311576 
L 155.75763 176.000685 
L 156.17173 175.578408 
L 156.58583 175.625328 
L 156.99993 177.549036 
L 157.414031 180.927255 
L 159.070431 184.493152 
L 159.484532 182.804043 
L 159.898632 183.413999 
L 160.312732 181.396452 
L 161.555032 180.504977 
L 161.969133 181.959488 
L 162.383233 176.235284 
L 162.797333 178.862787 
L 163.211433 174.733853 
L 164.867834 163.707722 
L 165.281934 159.719547 
L 165.696034 158.171197 
L 166.110135 159.297269 
L 167.352435 156.669766 
L 167.766535 159.719547 
L 168.180635 158.405795 
L 168.594736 162.018613 
L 169.008836 161.174058 
L 170.251136 163.238525 
L 171.079337 161.174058 
L 171.493437 164.739956 
L 171.907537 164.03616 
L 173.149838 163.660802 
L 173.978038 167.836656 
L 174.392138 166.382145 
L 174.806238 166.569824 
L 176.048539 162.816248 
L 177.29084 176.376043 
L 177.70494 168.681211 
L 178.94724 155.027576 
L 179.775441 140.857824 
L 180.189541 143.907605 
L 180.603641 140.341708 
L 181.845942 138.699518 
L 182.260042 144.611401 
L 182.674142 138.32416 
L 183.088242 140.482467 
L 184.744643 141.373941 
L 185.158743 144.142204 
L 185.572843 137.854963 
L 185.986943 136.963489 
L 186.401044 137.338846 
L 187.643344 141.373941 
L 188.057444 138.183401 
L 188.471545 129.503255 
L 188.885645 129.690934 
L 189.299745 128.611781 
L 190.542045 126.406555 
L 190.956146 123.779051 
L 191.370246 128.236423 
L 191.784346 123.779051 
L 192.198446 125.186642 
L 193.440747 122.606058 
L 193.854847 119.884715 
L 194.268947 122.230701 
L 194.683047 123.638292 
L 195.097147 134.007547 
L 196.339448 138.230321 
L 196.753548 130.723168 
L 197.167648 136.400452 
L 197.581749 132.130759 
L 197.995849 129.644014 
L 199.65225 129.034058 
L 200.06635 130.441649 
L 200.48045 126.218876 
L 200.89455 126.078117 
L 202.136851 127.298029 
L 202.550951 127.15727 
L 202.965051 126.265795 
L 203.379151 123.825971 
L 203.793251 125.46816 
L 205.035552 126.078117 
L 205.449652 125.421241 
L 205.863752 128.70562 
L 206.277853 130.770087 
L 207.934253 132.177679 
L 208.348353 126.031197 
L 208.762454 130.113211 
L 209.176554 125.890438 
L 209.590654 115.84962 
L 210.832955 109.937737 
L 211.247055 109.796978 
L 211.661155 108.999343 
L 212.489355 111.345329 
L 213.731656 102.524424 
L 214.145756 111.626847 
L 214.559856 112.096044 
L 214.973956 97.128657 
L 215.388057 101.163752 
L 216.630357 102.805942 
L 217.044457 91.263694 
L 217.458558 87.322438 
L 217.872658 86.337124 
L 218.286758 78.876891 
L 219.529058 64.800979 
L 219.943159 66.443169 
L 220.771359 64.894818 
L 221.185459 61.235081 
L 222.42776 62.408074 
L 222.84186 52.742614 
L 223.25596 59.82749 
L 223.67006 53.35257 
L 224.08416 56.683869 
L 225.326461 60.906643 
L 225.740561 60.062088 
L 226.154661 64.754059 
L 226.568762 56.261592 
L 226.982862 52.085738 
L 228.225162 42.795636 
L 228.639263 52.695694 
L 229.053363 55.839315 
L 229.467463 55.980074 
L 229.881563 53.587169 
L 231.123864 49.833592 
L 231.537964 40.637329 
L 231.952064 40.449651 
L 232.366164 41.106527 
L 232.780264 38.666702 
L 234.436665 35.66384 
L 234.850765 36.039198 
L 235.264865 35.053884 
L 235.678966 25.857622 
L 236.921266 29.142001 
L 237.335366 30.784191 
L 237.749467 30.737271 
L 238.163567 29.751957 
L 238.577667 29.095081 
L 239.819968 24.731549 
L 240.234068 26.889855 
L 240.648168 28.015928 
L 241.062268 28.766644 
L 241.476368 17.083636 
L 242.718669 19.66422 
L 243.132769 25.857622 
L 243.546869 28.532045 
L 243.960969 36.133038 
L 244.37507 33.411695 
L 245.61737 32.942497 
L 246.03147 34.490848 
L 246.445571 37.259111 
L 246.859671 37.259111 
L 248.516071 39.558176 
L 248.930172 37.493709 
L 249.344272 50.021271 
L 249.758372 52.179577 
L 250.172472 64.847898 
L 251.414773 66.490088 
L 251.828873 72.495811 
L 252.242973 59.87441 
L 252.657073 59.592891 
L 253.071173 61.657358 
L 254.313474 55.229358 
L 255.141674 58.1853 
L 257.212175 71.322818 
L 257.626276 76.108628 
L 258.040376 72.58965 
L 258.454476 76.765504 
L 258.868576 68.742234 
L 260.110877 66.114731 
L 260.524977 64.707139 
L 260.939077 64.237942 
L 261.353177 64.847898 
L 263.009578 64.097183 
L 263.423678 65.504774 
L 263.837778 70.431344 
L 264.251878 66.20857 
L 264.665979 70.94746 
L 266.322379 61.704278 
L 266.73648 61.42276 
L 267.15058 60.390526 
L 267.56468 67.146964 
L 268.806981 78.220015 
L 269.635181 75.78019 
L 270.049281 79.862205 
L 270.463381 80.753679 
L 272.119782 75.217154 
L 272.533882 79.956044 
L 274.604383 62.877271 
L 275.018483 64.894818 
L 275.432583 69.164512 
L 275.846684 66.583928 
L 276.260784 66.865446 
L 277.503084 62.079636 
L 277.917185 64.237942 
L 278.331285 65.786293 
L 278.745385 65.786293 
L 279.159485 64.237942 
L 280.815886 59.123694 
L 281.229986 56.167753 
L 281.644086 54.197125 
L 282.058186 54.103286 
L 283.300487 56.63695 
L 283.714587 57.059227 
L 284.128687 51.475782 
L 284.542788 49.505154 
L 284.956888 48.660599 
L 286.199188 43.546351 
L 287.027389 48.050643 
L 287.441489 53.774848 
L 287.855589 52.695694 
L 289.09789 46.689972 
L 289.51199 50.912745 
L 289.92609 48.754439 
L 290.34019 55.088599 
L 290.75429 52.977213 
L 292.410691 95.06419 
L 292.824791 96.518701 
L 293.238891 90.512978 
L 293.652992 93.140482 
L 294.895292 94.219635 
L 296.551693 80.800599 
L 297.793994 78.173095 
L 298.208094 81.129037 
L 298.622194 74.560278 
L 299.036294 70.149825 
L 299.450394 75.733271 
L 300.692695 83.240424 
L 301.106795 75.264074 
L 301.520895 73.387285 
L 301.934995 72.120453 
L 302.349096 72.261212 
L 303.591396 75.310993 
L 304.005496 71.651256 
L 304.419596 69.774468 
L 304.833697 62.079636 
L 305.247797 67.381563 
L 306.490097 64.378701 
L 307.318298 77.985417 
L 307.732398 80.472161 
L 308.146498 76.812424 
L 309.388799 74.560278 
L 309.802899 71.885855 
L 310.631099 75.076395 
L 311.045199 70.009066 
L 312.2875 74.607198 
L 312.7016 59.076774 
L 313.1157 62.548833 
L 313.943901 72.871168 
L 315.186201 64.472541 
L 315.600301 64.941738 
L 316.842602 79.815285 
L 318.084903 94.501154 
L 318.499003 90.137621 
L 318.913103 98.817767 
L 319.327203 104.025854 
L 319.741303 98.864686 
L 320.983604 94.454234 
L 321.397704 91.639051 
L 321.811804 100.459956 
L 322.225904 98.395489 
L 322.640005 95.439548 
L 323.882305 95.486467 
L 324.296405 91.076015 
L 324.710506 101.632949 
L 325.124606 101.820628 
L 325.538706 102.571343 
L 326.781006 98.020132 
L 327.195107 99.803081 
L 327.609207 100.976073 
L 328.023307 100.084599 
L 328.437407 103.603577 
L 329.679708 102.665183 
L 330.093808 99.85 
L 330.922008 98.160891 
L 331.336109 94.735752 
L 332.578409 92.718205 
L 332.992509 97.034818 
L 333.82071 101.820628 
L 334.23481 105.996482 
L 335.47711 100.319197 
L 335.891211 103.791256 
L 336.719411 101.304511 
L 337.133511 102.899781 
L 338.375812 100.647635 
L 338.789912 112.846759 
L 339.618112 115.333504 
L 340.032212 113.550555 
L 341.274513 114.442029 
L 341.688613 120.072394 
L 342.102713 113.832073 
L 342.930914 103.228219 
L 344.173214 100.741475 
L 344.587314 102.195986 
L 345.829615 102.618263 
L 347.071916 103.838175 
L 347.486016 101.210672 
L 347.900116 102.946701 
L 348.314216 103.885095 
L 348.728316 103.415898 
L 349.970617 106.090321 
L 350.798817 109.187022 
L 351.627018 126.453474 
L 352.869318 120.870029 
L 352.869318 120.870029 
" style="fill:none;stroke:#1f77b4;stroke-linecap:square;stroke-width:1.5;"/>
   </g>
   <g id="patch_3">
    <path d="M 33.2875 224.64 
L 33.2875 7.2 
" style="fill:none;stroke:#000000;stroke-linecap:square;stroke-linejoin:miter;stroke-width:0.8;"/>
   </g>
   <g id="patch_4">
    <path d="M 368.0875 224.64 
L 368.0875 7.2 
" style="fill:none;stroke:#000000;stroke-linecap:square;stroke-linejoin:miter;stroke-width:0.8;"/>
   </g>
   <g id="patch_5">
    <path d="M 33.2875 224.64 
L 368.0875 224.64 
" style="fill:none;stroke:#000000;stroke-linecap:square;stroke-linejoin:miter;stroke-width:0.8;"/>
   </g>
   <g id="patch_6">
    <path d="M 33.2875 7.2 
L 368.0875 7.2 
" style="fill:none;stroke:#000000;stroke-linecap:square;stroke-linejoin:miter;stroke-width:0.8;"/>
   </g>
  </g>
 </g>
 <defs>
  <clipPath id="p8d47d53bf6">
   <rect height="217.44" width="334.8" x="33.2875" y="7.2"/>
  </clipPath>
 </defs>
</svg>
