<?xml version="1.0" encoding="utf-8" standalone="no"?>
<!DOCTYPE svg PUBLIC "-//W3C//DTD SVG 1.1//EN"
  "http://www.w3.org/Graphics/SVG/1.1/DTD/svg11.dtd">
<!-- Created with matplotlib (https://matplotlib.org/) -->
<svg height="248.518125pt" version="1.1" viewBox="0 0 375.2875 248.518125" width="375.2875pt" xmlns="http://www.w3.org/2000/svg" xmlns:xlink="http://www.w3.org/1999/xlink">
 <defs>
  <style type="text/css">
*{stroke-linecap:butt;stroke-linejoin:round;}
  </style>
 </defs>
 <g id="figure_1">
  <g id="patch_1">
   <path d="M 0 248.518125 
L 375.2875 248.518125 
L 375.2875 0 
L 0 0 
z
"/>
  </g>
  <g id="axes_1">
   <g id="patch_2">
    <path d="M 33.2875 224.64 
L 368.0875 224.64 
L 368.0875 7.2 
L 33.2875 7.2 
z
"/>
   </g>
   <g id="matplotlib.axis_1">
    <g id="xtick_1">
     <g id="line2d_1">
      <defs>
       <path d="M 0 0 
L 0 3.5 
" id="md5f9010240" style="stroke:#ffffff;stroke-width:0.8;"/>
      </defs>
      <g>
       <use style="fill:#ffffff;stroke:#ffffff;stroke-width:0.8;" x="48.505682" xlink:href="#md5f9010240" y="224.64"/>
      </g>
     </g>
     <g id="text_1">
      <!-- 0 -->
      <defs>
       <path d="M 31.78125 66.40625 
Q 24.171875 66.40625 20.328125 58.90625 
Q 16.5 51.421875 16.5 36.375 
Q 16.5 21.390625 20.328125 13.890625 
Q 24.171875 6.390625 31.78125 6.390625 
Q 39.453125 6.390625 43.28125 13.890625 
Q 47.125 21.390625 47.125 36.375 
Q 47.125 51.421875 43.28125 58.90625 
Q 39.453125 66.40625 31.78125 66.40625 
z
M 31.78125 74.21875 
Q 44.046875 74.21875 50.515625 64.515625 
Q 56.984375 54.828125 56.984375 36.375 
Q 56.984375 17.96875 50.515625 8.265625 
Q 44.046875 -1.421875 31.78125 -1.421875 
Q 19.53125 -1.421875 13.0625 8.265625 
Q 6.59375 17.96875 6.59375 36.375 
Q 6.59375 54.828125 13.0625 64.515625 
Q 19.53125 74.21875 31.78125 74.21875 
z
" id="DejaVuSans-48"/>
      </defs>
      <g style="fill:#ffffff;" transform="translate(45.324432 239.238437)scale(0.1 -0.1)">
       <use xlink:href="#DejaVuSans-48"/>
      </g>
     </g>
    </g>
    <g id="xtick_2">
     <g id="line2d_2">
      <g>
       <use style="fill:#ffffff;stroke:#ffffff;stroke-width:0.8;" x="97.835283" xlink:href="#md5f9010240" y="224.64"/>
      </g>
     </g>
     <g id="text_2">
      <!-- 200 -->
      <defs>
       <path d="M 19.1875 8.296875 
L 53.609375 8.296875 
L 53.609375 0 
L 7.328125 0 
L 7.328125 8.296875 
Q 12.9375 14.109375 22.625 23.890625 
Q 32.328125 33.6875 34.8125 36.53125 
Q 39.546875 41.84375 41.421875 45.53125 
Q 43.3125 49.21875 43.3125 52.78125 
Q 43.3125 58.59375 39.234375 62.25 
Q 35.15625 65.921875 28.609375 65.921875 
Q 23.96875 65.921875 18.8125 64.3125 
Q 13.671875 62.703125 7.8125 59.421875 
L 7.8125 69.390625 
Q 13.765625 71.78125 18.9375 73 
Q 24.125 74.21875 28.421875 74.21875 
Q 39.75 74.21875 46.484375 68.546875 
Q 53.21875 62.890625 53.21875 53.421875 
Q 53.21875 48.921875 51.53125 44.890625 
Q 49.859375 40.875 45.40625 35.40625 
Q 44.1875 33.984375 37.640625 27.21875 
Q 31.109375 20.453125 19.1875 8.296875 
z
" id="DejaVuSans-50"/>
      </defs>
      <g style="fill:#ffffff;" transform="translate(88.291533 239.238437)scale(0.1 -0.1)">
       <use xlink:href="#DejaVuSans-50"/>
       <use x="63.623047" xlink:href="#DejaVuSans-48"/>
       <use x="127.246094" xlink:href="#DejaVuSans-48"/>
      </g>
     </g>
    </g>
    <g id="xtick_3">
     <g id="line2d_3">
      <g>
       <use style="fill:#ffffff;stroke:#ffffff;stroke-width:0.8;" x="147.164883" xlink:href="#md5f9010240" y="224.64"/>
      </g>
     </g>
     <g id="text_3">
      <!-- 400 -->
      <defs>
       <path d="M 37.796875 64.3125 
L 12.890625 25.390625 
L 37.796875 25.390625 
z
M 35.203125 72.90625 
L 47.609375 72.90625 
L 47.609375 25.390625 
L 58.015625 25.390625 
L 58.015625 17.1875 
L 47.609375 17.1875 
L 47.609375 0 
L 37.796875 0 
L 37.796875 17.1875 
L 4.890625 17.1875 
L 4.890625 26.703125 
z
" id="DejaVuSans-52"/>
      </defs>
      <g style="fill:#ffffff;" transform="translate(137.621133 239.238437)scale(0.1 -0.1)">
       <use xlink:href="#DejaVuSans-52"/>
       <use x="63.623047" xlink:href="#DejaVuSans-48"/>
       <use x="127.246094" xlink:href="#DejaVuSans-48"/>
      </g>
     </g>
    </g>
    <g id="xtick_4">
     <g id="line2d_4">
      <g>
       <use style="fill:#ffffff;stroke:#ffffff;stroke-width:0.8;" x="196.494484" xlink:href="#md5f9010240" y="224.64"/>
      </g>
     </g>
     <g id="text_4">
      <!-- 600 -->
      <defs>
       <path d="M 33.015625 40.375 
Q 26.375 40.375 22.484375 35.828125 
Q 18.609375 31.296875 18.609375 23.390625 
Q 18.609375 15.53125 22.484375 10.953125 
Q 26.375 6.390625 33.015625 6.390625 
Q 39.65625 6.390625 43.53125 10.953125 
Q 47.40625 15.53125 47.40625 23.390625 
Q 47.40625 31.296875 43.53125 35.828125 
Q 39.65625 40.375 33.015625 40.375 
z
M 52.59375 71.296875 
L 52.59375 62.3125 
Q 48.875 64.0625 45.09375 64.984375 
Q 41.3125 65.921875 37.59375 65.921875 
Q 27.828125 65.921875 22.671875 59.328125 
Q 17.53125 52.734375 16.796875 39.40625 
Q 19.671875 43.65625 24.015625 45.921875 
Q 28.375 48.1875 33.59375 48.1875 
Q 44.578125 48.1875 50.953125 41.515625 
Q 57.328125 34.859375 57.328125 23.390625 
Q 57.328125 12.15625 50.6875 5.359375 
Q 44.046875 -1.421875 33.015625 -1.421875 
Q 20.359375 -1.421875 13.671875 8.265625 
Q 6.984375 17.96875 6.984375 36.375 
Q 6.984375 53.65625 15.1875 63.9375 
Q 23.390625 74.21875 37.203125 74.21875 
Q 40.921875 74.21875 44.703125 73.484375 
Q 48.484375 72.75 52.59375 71.296875 
z
" id="DejaVuSans-54"/>
      </defs>
      <g style="fill:#ffffff;" transform="translate(186.950734 239.238437)scale(0.1 -0.1)">
       <use xlink:href="#DejaVuSans-54"/>
       <use x="63.623047" xlink:href="#DejaVuSans-48"/>
       <use x="127.246094" xlink:href="#DejaVuSans-48"/>
      </g>
     </g>
    </g>
    <g id="xtick_5">
     <g id="line2d_5">
      <g>
       <use style="fill:#ffffff;stroke:#ffffff;stroke-width:0.8;" x="245.824085" xlink:href="#md5f9010240" y="224.64"/>
      </g>
     </g>
     <g id="text_5">
      <!-- 800 -->
      <defs>
       <path d="M 31.78125 34.625 
Q 24.75 34.625 20.71875 30.859375 
Q 16.703125 27.09375 16.703125 20.515625 
Q 16.703125 13.921875 20.71875 10.15625 
Q 24.75 6.390625 31.78125 6.390625 
Q 38.8125 6.390625 42.859375 10.171875 
Q 46.921875 13.96875 46.921875 20.515625 
Q 46.921875 27.09375 42.890625 30.859375 
Q 38.875 34.625 31.78125 34.625 
z
M 21.921875 38.8125 
Q 15.578125 40.375 12.03125 44.71875 
Q 8.5 49.078125 8.5 55.328125 
Q 8.5 64.0625 14.71875 69.140625 
Q 20.953125 74.21875 31.78125 74.21875 
Q 42.671875 74.21875 48.875 69.140625 
Q 55.078125 64.0625 55.078125 55.328125 
Q 55.078125 49.078125 51.53125 44.71875 
Q 48 40.375 41.703125 38.8125 
Q 48.828125 37.15625 52.796875 32.3125 
Q 56.78125 27.484375 56.78125 20.515625 
Q 56.78125 9.90625 50.3125 4.234375 
Q 43.84375 -1.421875 31.78125 -1.421875 
Q 19.734375 -1.421875 13.25 4.234375 
Q 6.78125 9.90625 6.78125 20.515625 
Q 6.78125 27.484375 10.78125 32.3125 
Q 14.796875 37.15625 21.921875 38.8125 
z
M 18.3125 54.390625 
Q 18.3125 48.734375 21.84375 45.5625 
Q 25.390625 42.390625 31.78125 42.390625 
Q 38.140625 42.390625 41.71875 45.5625 
Q 45.3125 48.734375 45.3125 54.390625 
Q 45.3125 60.0625 41.71875 63.234375 
Q 38.140625 66.40625 31.78125 66.40625 
Q 25.390625 66.40625 21.84375 63.234375 
Q 18.3125 60.0625 18.3125 54.390625 
z
" id="DejaVuSans-56"/>
      </defs>
      <g style="fill:#ffffff;" transform="translate(236.280335 239.238437)scale(0.1 -0.1)">
       <use xlink:href="#DejaVuSans-56"/>
       <use x="63.623047" xlink:href="#DejaVuSans-48"/>
       <use x="127.246094" xlink:href="#DejaVuSans-48"/>
      </g>
     </g>
    </g>
    <g id="xtick_6">
     <g id="line2d_6">
      <g>
       <use style="fill:#ffffff;stroke:#ffffff;stroke-width:0.8;" x="295.153685" xlink:href="#md5f9010240" y="224.64"/>
      </g>
     </g>
     <g id="text_6">
      <!-- 1000 -->
      <defs>
       <path d="M 12.40625 8.296875 
L 28.515625 8.296875 
L 28.515625 63.921875 
L 10.984375 60.40625 
L 10.984375 69.390625 
L 28.421875 72.90625 
L 38.28125 72.90625 
L 38.28125 8.296875 
L 54.390625 8.296875 
L 54.390625 0 
L 12.40625 0 
z
" id="DejaVuSans-49"/>
      </defs>
      <g style="fill:#ffffff;" transform="translate(282.428685 239.238437)scale(0.1 -0.1)">
       <use xlink:href="#DejaVuSans-49"/>
       <use x="63.623047" xlink:href="#DejaVuSans-48"/>
       <use x="127.246094" xlink:href="#DejaVuSans-48"/>
       <use x="190.869141" xlink:href="#DejaVuSans-48"/>
      </g>
     </g>
    </g>
    <g id="xtick_7">
     <g id="line2d_7">
      <g>
       <use style="fill:#ffffff;stroke:#ffffff;stroke-width:0.8;" x="344.483286" xlink:href="#md5f9010240" y="224.64"/>
      </g>
     </g>
     <g id="text_7">
      <!-- 1200 -->
      <g style="fill:#ffffff;" transform="translate(331.758286 239.238437)scale(0.1 -0.1)">
       <use xlink:href="#DejaVuSans-49"/>
       <use x="63.623047" xlink:href="#DejaVuSans-50"/>
       <use x="127.246094" xlink:href="#DejaVuSans-48"/>
       <use x="190.869141" xlink:href="#DejaVuSans-48"/>
      </g>
     </g>
    </g>
   </g>
   <g id="matplotlib.axis_2">
    <g id="ytick_1">
     <g id="line2d_8">
      <defs>
       <path d="M 0 0 
L -3.5 0 
" id="mbf6f54b18c" style="stroke:#ffffff;stroke-width:0.8;"/>
      </defs>
      <g>
       <use style="fill:#ffffff;stroke:#ffffff;stroke-width:0.8;" x="33.2875" xlink:href="#mbf6f54b18c" y="182.006408"/>
      </g>
     </g>
     <g id="text_8">
      <!-- 150 -->
      <defs>
       <path d="M 10.796875 72.90625 
L 49.515625 72.90625 
L 49.515625 64.59375 
L 19.828125 64.59375 
L 19.828125 46.734375 
Q 21.96875 47.46875 24.109375 47.828125 
Q 26.265625 48.1875 28.421875 48.1875 
Q 40.625 48.1875 47.75 41.5 
Q 54.890625 34.8125 54.890625 23.390625 
Q 54.890625 11.625 47.5625 5.09375 
Q 40.234375 -1.421875 26.90625 -1.421875 
Q 22.3125 -1.421875 17.546875 -0.640625 
Q 12.796875 0.140625 7.71875 1.703125 
L 7.71875 11.625 
Q 12.109375 9.234375 16.796875 8.0625 
Q 21.484375 6.890625 26.703125 6.890625 
Q 35.15625 6.890625 40.078125 11.328125 
Q 45.015625 15.765625 45.015625 23.390625 
Q 45.015625 31 40.078125 35.4375 
Q 35.15625 39.890625 26.703125 39.890625 
Q 22.75 39.890625 18.8125 39.015625 
Q 14.890625 38.140625 10.796875 36.28125 
z
" id="DejaVuSans-53"/>
      </defs>
      <g style="fill:#ffffff;" transform="translate(7.2 185.805627)scale(0.1 -0.1)">
       <use xlink:href="#DejaVuSans-49"/>
       <use x="63.623047" xlink:href="#DejaVuSans-53"/>
       <use x="127.246094" xlink:href="#DejaVuSans-48"/>
      </g>
     </g>
    </g>
    <g id="ytick_2">
     <g id="line2d_9">
      <g>
       <use style="fill:#ffffff;stroke:#ffffff;stroke-width:0.8;" x="33.2875" xlink:href="#mbf6f54b18c" y="135.0867"/>
      </g>
     </g>
     <g id="text_9">
      <!-- 200 -->
      <g style="fill:#ffffff;" transform="translate(7.2 138.885919)scale(0.1 -0.1)">
       <use xlink:href="#DejaVuSans-50"/>
       <use x="63.623047" xlink:href="#DejaVuSans-48"/>
       <use x="127.246094" xlink:href="#DejaVuSans-48"/>
      </g>
     </g>
    </g>
    <g id="ytick_3">
     <g id="line2d_10">
      <g>
       <use style="fill:#ffffff;stroke:#ffffff;stroke-width:0.8;" x="33.2875" xlink:href="#mbf6f54b18c" y="88.166993"/>
      </g>
     </g>
     <g id="text_10">
      <!-- 250 -->
      <g style="fill:#ffffff;" transform="translate(7.2 91.966212)scale(0.1 -0.1)">
       <use xlink:href="#DejaVuSans-50"/>
       <use x="63.623047" xlink:href="#DejaVuSans-53"/>
       <use x="127.246094" xlink:href="#DejaVuSans-48"/>
      </g>
     </g>
    </g>
    <g id="ytick_4">
     <g id="line2d_11">
      <g>
       <use style="fill:#ffffff;stroke:#ffffff;stroke-width:0.8;" x="33.2875" xlink:href="#mbf6f54b18c" y="41.247286"/>
      </g>
     </g>
     <g id="text_11">
      <!-- 300 -->
      <defs>
       <path d="M 40.578125 39.3125 
Q 47.65625 37.796875 51.625 33 
Q 55.609375 28.21875 55.609375 21.1875 
Q 55.609375 10.40625 48.1875 4.484375 
Q 40.765625 -1.421875 27.09375 -1.421875 
Q 22.515625 -1.421875 17.65625 -0.515625 
Q 12.796875 0.390625 7.625 2.203125 
L 7.625 11.71875 
Q 11.71875 9.328125 16.59375 8.109375 
Q 21.484375 6.890625 26.8125 6.890625 
Q 36.078125 6.890625 40.9375 10.546875 
Q 45.796875 14.203125 45.796875 21.1875 
Q 45.796875 27.640625 41.28125 31.265625 
Q 36.765625 34.90625 28.71875 34.90625 
L 20.21875 34.90625 
L 20.21875 43.015625 
L 29.109375 43.015625 
Q 36.375 43.015625 40.234375 45.921875 
Q 44.09375 48.828125 44.09375 54.296875 
Q 44.09375 59.90625 40.109375 62.90625 
Q 36.140625 65.921875 28.71875 65.921875 
Q 24.65625 65.921875 20.015625 65.03125 
Q 15.375 64.15625 9.8125 62.3125 
L 9.8125 71.09375 
Q 15.4375 72.65625 20.34375 73.4375 
Q 25.25 74.21875 29.59375 74.21875 
Q 40.828125 74.21875 47.359375 69.109375 
Q 53.90625 64.015625 53.90625 55.328125 
Q 53.90625 49.265625 50.4375 45.09375 
Q 46.96875 40.921875 40.578125 39.3125 
z
" id="DejaVuSans-51"/>
      </defs>
      <g style="fill:#ffffff;" transform="translate(7.2 45.046504)scale(0.1 -0.1)">
       <use xlink:href="#DejaVuSans-51"/>
       <use x="63.623047" xlink:href="#DejaVuSans-48"/>
       <use x="127.246094" xlink:href="#DejaVuSans-48"/>
      </g>
     </g>
    </g>
   </g>
   <g id="line2d_12">
    <path clip-path="url(#p02f6218209)" d="M 48.505682 189.185123 
L 48.75233 189.70124 
L 48.998978 178.909707 
L 49.245626 181.161853 
L 49.738922 180.458058 
L 49.98557 184.023955 
L 50.232218 179.003547 
L 50.478866 181.771809 
L 50.725514 180.223459 
L 50.972162 177.689795 
L 51.21881 179.801182 
L 51.465458 179.660423 
L 51.712106 178.205912 
L 52.205402 186.323021 
L 52.45205 193.501736 
L 52.698698 191.437269 
L 53.191994 192.704101 
L 53.931938 203.730232 
L 54.178586 202.651079 
L 54.425234 203.167196 
L 54.671882 208.375283 
L 54.91853 205.090904 
L 55.165178 211.425064 
L 55.411826 212.973415 
L 55.658474 208.93832 
L 55.905122 211.471984 
L 56.15177 210.064393 
L 56.398418 214.240247 
L 56.645066 212.691897 
L 56.891714 212.363459 
L 57.138362 214.756364 
L 57.631658 209.266758 
L 57.878306 208.328364 
L 58.124954 206.545415 
L 58.371602 208.375283 
L 58.61825 208.703721 
L 58.864898 206.733094 
L 59.111546 206.967692 
L 59.358194 207.999926 
L 59.604842 206.545415 
L 59.85149 206.498495 
L 60.098138 207.014612 
L 60.344786 207.014612 
L 60.591434 207.577648 
L 60.838082 205.982378 
L 61.08473 206.123137 
L 61.331378 206.123137 
L 61.578026 208.98524 
L 61.824674 208.656802 
L 62.071322 210.721269 
L 62.31797 211.237386 
L 62.564618 212.973415 
L 62.811266 209.642116 
L 63.057914 210.53359 
L 63.797858 206.826933 
L 64.044506 205.982378 
L 64.291154 205.982378 
L 64.537802 205.278583 
L 64.78445 205.7947 
L 65.031098 205.70086 
L 65.277746 205.982378 
L 65.524394 203.073356 
L 65.771042 205.325502 
L 66.01769 202.322641 
L 66.264338 202.979517 
L 66.510986 203.026437 
L 66.757634 202.041123 
L 67.004282 200.305094 
L 67.25093 204.15251 
L 67.497578 202.744919 
L 67.744226 202.228802 
L 67.990874 202.322641 
L 68.48417 200.352013 
L 68.730818 201.853444 
L 68.977466 200.680451 
L 69.470762 189.65432 
L 69.71741 188.809765 
L 69.964058 189.841999 
L 70.210706 185.619225 
L 70.457354 187.730612 
L 70.704002 187.683692 
L 70.95065 189.560481 
L 71.197298 190.264276 
L 71.443946 192.563342 
L 71.690594 191.29651 
L 71.937242 191.24959 
L 72.18389 189.888919 
L 72.430538 189.888919 
L 72.677186 191.390349 
L 72.923834 192.094145 
L 73.170482 192.422583 
L 73.41713 193.220218 
L 73.663778 188.01213 
L 73.910426 190.358116 
L 74.157074 188.246729 
L 74.403722 188.340568 
L 74.65037 188.809765 
L 74.897018 190.076598 
L 75.143666 190.639634 
L 75.390314 194.111692 
L 76.130258 186.979897 
L 76.376906 186.886057 
L 76.623554 185.337707 
L 76.870202 185.853824 
L 77.11685 188.481327 
L 77.363498 180.504977 
L 77.610146 180.927255 
L 77.856794 183.32016 
L 78.103442 181.490291 
L 78.35009 181.443371 
L 78.596738 181.865649 
L 78.843386 181.490291 
L 79.336682 179.519663 
L 79.58333 179.144306 
L 79.829978 181.443371 
L 80.076626 181.114933 
L 80.323274 178.815868 
L 80.81657 181.537211 
L 81.309866 183.742437 
L 81.803162 179.98886 
L 82.04981 180.786495 
L 82.296458 180.176539 
L 82.543106 180.411138 
L 82.789754 178.48743 
L 83.036402 180.03578 
L 83.28305 179.097386 
L 83.529698 174.780773 
L 84.022994 176.985999 
L 84.269642 179.848101 
L 84.51629 179.566583 
L 85.009586 177.455196 
L 85.256234 178.252831 
L 85.502882 179.519663 
L 85.74953 177.689795 
L 85.996178 177.830554 
L 86.242826 179.331985 
L 86.489474 184.352393 
L 86.736122 182.475605 
L 86.98277 184.070875 
L 87.476066 189.795079 
L 87.722714 188.528247 
L 87.969362 184.91543 
L 88.21601 186.323021 
L 88.462658 186.182262 
L 88.955954 179.754262 
L 89.202602 177.455196 
L 89.44925 177.361357 
L 89.695898 179.191225 
L 89.942546 176.79832 
L 90.189194 177.689795 
L 90.435842 177.877474 
L 90.68249 180.03578 
L 90.929138 175.953766 
L 91.175786 174.076977 
L 91.422434 173.467021 
L 91.669082 174.311576 
L 91.91573 176.000685 
L 92.162378 175.578408 
L 92.409026 175.625328 
L 92.655674 177.549036 
L 93.14897 184.493152 
L 93.395618 182.804043 
L 93.642266 183.413999 
L 93.888914 181.396452 
L 94.135562 180.504977 
L 94.38221 181.959488 
L 94.628858 176.235284 
L 94.875506 178.862787 
L 95.122154 174.733853 
L 95.368802 166.475985 
L 96.108747 158.171197 
L 96.355395 159.297269 
L 96.602043 156.669766 
L 96.848691 159.719547 
L 97.095339 158.405795 
L 97.341987 162.018613 
L 97.588635 161.174058 
L 97.835283 163.238525 
L 98.328579 161.174058 
L 98.575227 164.739956 
L 99.068523 163.660802 
L 99.561819 167.836656 
L 99.808467 166.382145 
L 100.055115 166.569824 
L 100.301763 162.816248 
L 101.041707 176.376043 
L 101.288355 168.681211 
L 101.781651 140.857824 
L 102.028299 143.907605 
L 102.274947 140.341708 
L 102.521595 138.699518 
L 102.768243 144.611401 
L 103.014891 138.32416 
L 103.261539 140.482467 
L 103.508187 141.373941 
L 103.754835 144.142204 
L 104.001483 137.854963 
L 104.248131 136.963489 
L 104.494779 137.338846 
L 104.741427 141.373941 
L 104.988075 138.183401 
L 105.234723 129.503255 
L 105.481371 129.690934 
L 105.728019 128.611781 
L 106.221315 123.779051 
L 106.467963 128.236423 
L 106.714611 123.779051 
L 106.961259 125.186642 
L 107.454555 119.884715 
L 107.947851 123.638292 
L 108.194499 134.007547 
L 108.441147 138.230321 
L 108.687795 130.723168 
L 108.934443 136.400452 
L 109.427739 129.644014 
L 109.674387 129.034058 
L 109.921035 130.441649 
L 110.167683 126.218876 
L 110.414331 126.078117 
L 110.660979 127.298029 
L 110.907627 127.15727 
L 111.154275 126.265795 
L 111.400923 123.825971 
L 111.647571 125.46816 
L 111.894219 126.078117 
L 112.140867 125.421241 
L 112.634163 130.770087 
L 112.880811 132.177679 
L 113.127459 126.031197 
L 113.374107 130.113211 
L 113.620755 125.890438 
L 114.114051 109.937737 
L 114.360699 109.796978 
L 114.607347 108.999343 
L 115.100643 111.345329 
L 115.347291 102.524424 
L 115.593939 111.626847 
L 115.840587 112.096044 
L 116.087235 97.128657 
L 116.333883 101.163752 
L 116.580531 102.805942 
L 116.827179 91.263694 
L 117.073827 87.322438 
L 117.320475 86.337124 
L 117.567123 78.876891 
L 117.813771 64.800979 
L 118.060419 66.443169 
L 118.553715 64.894818 
L 118.800363 61.235081 
L 119.047011 62.408074 
L 119.293659 52.742614 
L 119.540307 59.82749 
L 119.786955 53.35257 
L 120.280251 60.906643 
L 120.526899 60.062088 
L 120.773547 64.754059 
L 121.020195 56.261592 
L 121.266843 52.085738 
L 121.513491 42.795636 
L 121.760139 52.695694 
L 122.006787 55.839315 
L 122.253435 55.980074 
L 122.500083 53.587169 
L 122.746731 49.833592 
L 122.993379 40.637329 
L 123.240027 40.449651 
L 123.486675 41.106527 
L 123.979971 35.66384 
L 124.226619 36.039198 
L 124.473267 35.053884 
L 124.719915 25.857622 
L 124.966563 29.142001 
L 125.213211 30.784191 
L 125.459859 30.737271 
L 125.953155 29.095081 
L 126.199803 24.731549 
L 126.446451 26.889855 
L 126.939747 28.766644 
L 127.186395 17.083636 
L 127.433043 19.66422 
L 127.679691 25.857622 
L 127.926339 28.532045 
L 128.172987 36.133038 
L 128.419635 33.411695 
L 128.666283 32.942497 
L 128.912931 34.490848 
L 129.159579 37.259111 
L 129.406227 37.259111 
L 129.652875 39.558176 
L 129.899523 37.493709 
L 130.146171 50.021271 
L 130.392819 52.179577 
L 130.639467 64.847898 
L 130.886115 66.490088 
L 131.132763 72.495811 
L 131.379411 59.87441 
L 131.626059 59.592891 
L 131.872707 61.657358 
L 132.119355 55.229358 
L 132.859299 64.144103 
L 133.352595 76.108628 
L 133.599243 72.58965 
L 133.845891 76.765504 
L 134.092539 68.742234 
L 134.339187 66.114731 
L 134.585835 64.707139 
L 134.832483 64.237942 
L 135.079131 64.847898 
L 135.325779 64.097183 
L 135.572427 65.504774 
L 135.819075 70.431344 
L 136.065723 66.20857 
L 136.312371 70.94746 
L 136.559019 63.721826 
L 136.805667 61.704278 
L 137.052315 61.42276 
L 137.298963 60.390526 
L 137.545611 67.146964 
L 137.792259 78.220015 
L 138.285555 75.78019 
L 138.532203 79.862205 
L 138.778851 80.753679 
L 139.025499 76.718584 
L 139.272147 75.217154 
L 139.518795 79.956044 
L 139.765443 62.877271 
L 140.012091 64.894818 
L 140.258739 69.164512 
L 140.505387 66.583928 
L 140.752035 66.865446 
L 140.998683 62.079636 
L 141.491979 65.786293 
L 141.738627 65.786293 
L 141.985275 64.237942 
L 142.231923 60.343607 
L 142.478571 59.123694 
L 142.971867 54.197125 
L 143.218515 54.103286 
L 143.465163 56.63695 
L 143.711811 57.059227 
L 143.958459 51.475782 
L 144.205107 49.505154 
L 144.451755 48.660599 
L 144.698403 43.546351 
L 145.191699 53.774848 
L 145.438347 52.695694 
L 145.684995 46.689972 
L 145.931643 50.912745 
L 146.178291 48.754439 
L 146.424939 55.088599 
L 146.671587 52.977213 
L 146.918235 82.630468 
L 147.164883 95.06419 
L 147.411531 96.518701 
L 147.658179 90.512978 
L 147.904827 93.140482 
L 148.151475 94.219635 
L 149.384715 78.173095 
L 149.631363 81.129037 
L 150.124659 70.149825 
L 150.617955 83.240424 
L 150.864603 75.264074 
L 151.357899 72.120453 
L 151.604547 72.261212 
L 151.851195 75.310993 
L 152.097843 71.651256 
L 152.344491 69.774468 
L 152.591139 62.079636 
L 152.837787 67.381563 
L 153.084435 64.378701 
L 153.577731 77.985417 
L 153.824379 80.472161 
L 154.317675 74.560278 
L 154.564323 71.885855 
L 155.057619 75.076395 
L 155.304267 70.009066 
L 155.550915 74.607198 
L 155.797563 59.076774 
L 156.044211 62.548833 
L 156.537507 72.871168 
L 156.784155 64.472541 
L 157.030803 64.941738 
L 157.770747 79.815285 
L 158.017395 94.501154 
L 158.264043 90.137621 
L 158.757339 104.025854 
L 159.250635 94.454234 
L 159.497283 91.639051 
L 159.743931 100.459956 
L 160.237227 95.439548 
L 160.483875 95.486467 
L 160.730523 91.076015 
L 160.977171 101.632949 
L 161.223819 101.820628 
L 161.470467 102.571343 
L 161.717115 98.020132 
L 162.210411 100.976073 
L 162.457059 100.084599 
L 162.703707 103.603577 
L 162.950355 102.665183 
L 163.690299 94.735752 
L 163.936947 92.718205 
L 164.676891 105.996482 
L 164.923539 100.319197 
L 165.170187 103.791256 
L 165.663483 101.304511 
L 165.910132 102.899781 
L 166.15678 100.647635 
L 166.403428 112.846759 
L 166.896724 115.333504 
L 167.143372 113.550555 
L 167.39002 114.442029 
L 167.636668 120.072394 
L 167.883316 113.832073 
L 168.129964 103.228219 
L 168.376612 100.741475 
L 168.62326 102.195986 
L 168.869908 102.336745 
L 169.116556 102.618263 
L 169.363204 103.838175 
L 169.609852 101.210672 
L 169.8565 102.946701 
L 170.103148 103.885095 
L 170.349796 103.415898 
L 170.843092 109.187022 
L 171.336388 126.453474 
L 171.583036 120.870029 
L 171.583036 120.870029 
" style="fill:none;stroke:#8dd3c7;stroke-linecap:square;stroke-width:1.5;"/>
   </g>
   <g id="line2d_13">
    <path clip-path="url(#p02f6218209)" d="M 171.829684 120.870029 
L 352.869318 120.870029 
L 352.869318 120.870029 
" style="fill:none;stroke:#008000;stroke-linecap:square;stroke-width:1.5;"/>
   </g>
   <g id="patch_3">
    <path d="M 33.2875 224.64 
L 33.2875 7.2 
" style="fill:none;stroke:#ffffff;stroke-linecap:square;stroke-linejoin:miter;stroke-width:0.8;"/>
   </g>
   <g id="patch_4">
    <path d="M 368.0875 224.64 
L 368.0875 7.2 
" style="fill:none;stroke:#ffffff;stroke-linecap:square;stroke-linejoin:miter;stroke-width:0.8;"/>
   </g>
   <g id="patch_5">
    <path d="M 33.2875 224.64 
L 368.0875 224.64 
" style="fill:none;stroke:#ffffff;stroke-linecap:square;stroke-linejoin:miter;stroke-width:0.8;"/>
   </g>
   <g id="patch_6">
    <path d="M 33.2875 7.2 
L 368.0875 7.2 
" style="fill:none;stroke:#ffffff;stroke-linecap:square;stroke-linejoin:miter;stroke-width:0.8;"/>
   </g>
  </g>
 </g>
 <defs>
  <clipPath id="p02f6218209">
   <rect height="217.44" width="334.8" x="33.2875" y="7.2"/>
  </clipPath>
 </defs>
</svg>
