<?xml version="1.0" encoding="utf-8" standalone="no"?>
<!DOCTYPE svg PUBLIC "-//W3C//DTD SVG 1.1//EN"
  "http://www.w3.org/Graphics/SVG/1.1/DTD/svg11.dtd">
<!-- Created with matplotlib (https://matplotlib.org/) -->
<svg height="248.518125pt" version="1.1" viewBox="0 0 498.212361 248.518125" width="498.212361pt" xmlns="http://www.w3.org/2000/svg" xmlns:xlink="http://www.w3.org/1999/xlink">
 <defs>
  <style type="text/css">
*{stroke-linecap:butt;stroke-linejoin:round;}
  </style>
 </defs>
 <g id="figure_1">
  <g id="patch_1">
   <path d="M 0 248.518125 
L 498.212361 248.518125 
L 498.212361 0 
L 0 0 
z
"/>
  </g>
  <g id="axes_1">
   <g id="patch_2">
    <path d="M 33.2875 224.64 
L 479.6875 224.64 
L 479.6875 7.2 
L 33.2875 7.2 
z
"/>
   </g>
   <g id="matplotlib.axis_1">
    <g id="xtick_1">
     <g id="line2d_1">
      <defs>
       <path d="M 0 0 
L 0 3.5 
" id="m8f01f32bda" style="stroke:#ffffff;stroke-width:0.8;"/>
      </defs>
      <g>
       <use style="fill:#ffffff;stroke:#ffffff;stroke-width:0.8;" x="72.469179" xlink:href="#m8f01f32bda" y="224.64"/>
      </g>
     </g>
     <g id="text_1">
      <!-- 2014 -->
      <defs>
       <path d="M 19.1875 8.296875 
L 53.609375 8.296875 
L 53.609375 0 
L 7.328125 0 
L 7.328125 8.296875 
Q 12.9375 14.109375 22.625 23.890625 
Q 32.328125 33.6875 34.8125 36.53125 
Q 39.546875 41.84375 41.421875 45.53125 
Q 43.3125 49.21875 43.3125 52.78125 
Q 43.3125 58.59375 39.234375 62.25 
Q 35.15625 65.921875 28.609375 65.921875 
Q 23.96875 65.921875 18.8125 64.3125 
Q 13.671875 62.703125 7.8125 59.421875 
L 7.8125 69.390625 
Q 13.765625 71.78125 18.9375 73 
Q 24.125 74.21875 28.421875 74.21875 
Q 39.75 74.21875 46.484375 68.546875 
Q 53.21875 62.890625 53.21875 53.421875 
Q 53.21875 48.921875 51.53125 44.890625 
Q 49.859375 40.875 45.40625 35.40625 
Q 44.1875 33.984375 37.640625 27.21875 
Q 31.109375 20.453125 19.1875 8.296875 
z
" id="DejaVuSans-50"/>
       <path d="M 31.78125 66.40625 
Q 24.171875 66.40625 20.328125 58.90625 
Q 16.5 51.421875 16.5 36.375 
Q 16.5 21.390625 20.328125 13.890625 
Q 24.171875 6.390625 31.78125 6.390625 
Q 39.453125 6.390625 43.28125 13.890625 
Q 47.125 21.390625 47.125 36.375 
Q 47.125 51.421875 43.28125 58.90625 
Q 39.453125 66.40625 31.78125 66.40625 
z
M 31.78125 74.21875 
Q 44.046875 74.21875 50.515625 64.515625 
Q 56.984375 54.828125 56.984375 36.375 
Q 56.984375 17.96875 50.515625 8.265625 
Q 44.046875 -1.421875 31.78125 -1.421875 
Q 19.53125 -1.421875 13.0625 8.265625 
Q 6.59375 17.96875 6.59375 36.375 
Q 6.59375 54.828125 13.0625 64.515625 
Q 19.53125 74.21875 31.78125 74.21875 
z
" id="DejaVuSans-48"/>
       <path d="M 12.40625 8.296875 
L 28.515625 8.296875 
L 28.515625 63.921875 
L 10.984375 60.40625 
L 10.984375 69.390625 
L 28.421875 72.90625 
L 38.28125 72.90625 
L 38.28125 8.296875 
L 54.390625 8.296875 
L 54.390625 0 
L 12.40625 0 
z
" id="DejaVuSans-49"/>
       <path d="M 37.796875 64.3125 
L 12.890625 25.390625 
L 37.796875 25.390625 
z
M 35.203125 72.90625 
L 47.609375 72.90625 
L 47.609375 25.390625 
L 58.015625 25.390625 
L 58.015625 17.1875 
L 47.609375 17.1875 
L 47.609375 0 
L 37.796875 0 
L 37.796875 17.1875 
L 4.890625 17.1875 
L 4.890625 26.703125 
z
" id="DejaVuSans-52"/>
      </defs>
      <g style="fill:#ffffff;" transform="translate(59.744179 239.238437)scale(0.1 -0.1)">
       <use xlink:href="#DejaVuSans-50"/>
       <use x="63.623047" xlink:href="#DejaVuSans-48"/>
       <use x="127.246094" xlink:href="#DejaVuSans-49"/>
       <use x="190.869141" xlink:href="#DejaVuSans-52"/>
      </g>
     </g>
    </g>
    <g id="xtick_2">
     <g id="line2d_2">
      <g>
       <use style="fill:#ffffff;stroke:#ffffff;stroke-width:0.8;" x="153.588366" xlink:href="#m8f01f32bda" y="224.64"/>
      </g>
     </g>
     <g id="text_2">
      <!-- 2015 -->
      <defs>
       <path d="M 10.796875 72.90625 
L 49.515625 72.90625 
L 49.515625 64.59375 
L 19.828125 64.59375 
L 19.828125 46.734375 
Q 21.96875 47.46875 24.109375 47.828125 
Q 26.265625 48.1875 28.421875 48.1875 
Q 40.625 48.1875 47.75 41.5 
Q 54.890625 34.8125 54.890625 23.390625 
Q 54.890625 11.625 47.5625 5.09375 
Q 40.234375 -1.421875 26.90625 -1.421875 
Q 22.3125 -1.421875 17.546875 -0.640625 
Q 12.796875 0.140625 7.71875 1.703125 
L 7.71875 11.625 
Q 12.109375 9.234375 16.796875 8.0625 
Q 21.484375 6.890625 26.703125 6.890625 
Q 35.15625 6.890625 40.078125 11.328125 
Q 45.015625 15.765625 45.015625 23.390625 
Q 45.015625 31 40.078125 35.4375 
Q 35.15625 39.890625 26.703125 39.890625 
Q 22.75 39.890625 18.8125 39.015625 
Q 14.890625 38.140625 10.796875 36.28125 
z
" id="DejaVuSans-53"/>
      </defs>
      <g style="fill:#ffffff;" transform="translate(140.863366 239.238437)scale(0.1 -0.1)">
       <use xlink:href="#DejaVuSans-50"/>
       <use x="63.623047" xlink:href="#DejaVuSans-48"/>
       <use x="127.246094" xlink:href="#DejaVuSans-49"/>
       <use x="190.869141" xlink:href="#DejaVuSans-53"/>
      </g>
     </g>
    </g>
    <g id="xtick_3">
     <g id="line2d_3">
      <g>
       <use style="fill:#ffffff;stroke:#ffffff;stroke-width:0.8;" x="234.707554" xlink:href="#m8f01f32bda" y="224.64"/>
      </g>
     </g>
     <g id="text_3">
      <!-- 2016 -->
      <defs>
       <path d="M 33.015625 40.375 
Q 26.375 40.375 22.484375 35.828125 
Q 18.609375 31.296875 18.609375 23.390625 
Q 18.609375 15.53125 22.484375 10.953125 
Q 26.375 6.390625 33.015625 6.390625 
Q 39.65625 6.390625 43.53125 10.953125 
Q 47.40625 15.53125 47.40625 23.390625 
Q 47.40625 31.296875 43.53125 35.828125 
Q 39.65625 40.375 33.015625 40.375 
z
M 52.59375 71.296875 
L 52.59375 62.3125 
Q 48.875 64.0625 45.09375 64.984375 
Q 41.3125 65.921875 37.59375 65.921875 
Q 27.828125 65.921875 22.671875 59.328125 
Q 17.53125 52.734375 16.796875 39.40625 
Q 19.671875 43.65625 24.015625 45.921875 
Q 28.375 48.1875 33.59375 48.1875 
Q 44.578125 48.1875 50.953125 41.515625 
Q 57.328125 34.859375 57.328125 23.390625 
Q 57.328125 12.15625 50.6875 5.359375 
Q 44.046875 -1.421875 33.015625 -1.421875 
Q 20.359375 -1.421875 13.671875 8.265625 
Q 6.984375 17.96875 6.984375 36.375 
Q 6.984375 53.65625 15.1875 63.9375 
Q 23.390625 74.21875 37.203125 74.21875 
Q 40.921875 74.21875 44.703125 73.484375 
Q 48.484375 72.75 52.59375 71.296875 
z
" id="DejaVuSans-54"/>
      </defs>
      <g style="fill:#ffffff;" transform="translate(221.982554 239.238437)scale(0.1 -0.1)">
       <use xlink:href="#DejaVuSans-50"/>
       <use x="63.623047" xlink:href="#DejaVuSans-48"/>
       <use x="127.246094" xlink:href="#DejaVuSans-49"/>
       <use x="190.869141" xlink:href="#DejaVuSans-54"/>
      </g>
     </g>
    </g>
    <g id="xtick_4">
     <g id="line2d_4">
      <g>
       <use style="fill:#ffffff;stroke:#ffffff;stroke-width:0.8;" x="316.048986" xlink:href="#m8f01f32bda" y="224.64"/>
      </g>
     </g>
     <g id="text_4">
      <!-- 2017 -->
      <defs>
       <path d="M 8.203125 72.90625 
L 55.078125 72.90625 
L 55.078125 68.703125 
L 28.609375 0 
L 18.3125 0 
L 43.21875 64.59375 
L 8.203125 64.59375 
z
" id="DejaVuSans-55"/>
      </defs>
      <g style="fill:#ffffff;" transform="translate(303.323986 239.238437)scale(0.1 -0.1)">
       <use xlink:href="#DejaVuSans-50"/>
       <use x="63.623047" xlink:href="#DejaVuSans-48"/>
       <use x="127.246094" xlink:href="#DejaVuSans-49"/>
       <use x="190.869141" xlink:href="#DejaVuSans-55"/>
      </g>
     </g>
    </g>
    <g id="xtick_5">
     <g id="line2d_5">
      <g>
       <use style="fill:#ffffff;stroke:#ffffff;stroke-width:0.8;" x="397.168173" xlink:href="#m8f01f32bda" y="224.64"/>
      </g>
     </g>
     <g id="text_5">
      <!-- 2018 -->
      <defs>
       <path d="M 31.78125 34.625 
Q 24.75 34.625 20.71875 30.859375 
Q 16.703125 27.09375 16.703125 20.515625 
Q 16.703125 13.921875 20.71875 10.15625 
Q 24.75 6.390625 31.78125 6.390625 
Q 38.8125 6.390625 42.859375 10.171875 
Q 46.921875 13.96875 46.921875 20.515625 
Q 46.921875 27.09375 42.890625 30.859375 
Q 38.875 34.625 31.78125 34.625 
z
M 21.921875 38.8125 
Q 15.578125 40.375 12.03125 44.71875 
Q 8.5 49.078125 8.5 55.328125 
Q 8.5 64.0625 14.71875 69.140625 
Q 20.953125 74.21875 31.78125 74.21875 
Q 42.671875 74.21875 48.875 69.140625 
Q 55.078125 64.0625 55.078125 55.328125 
Q 55.078125 49.078125 51.53125 44.71875 
Q 48 40.375 41.703125 38.8125 
Q 48.828125 37.15625 52.796875 32.3125 
Q 56.78125 27.484375 56.78125 20.515625 
Q 56.78125 9.90625 50.3125 4.234375 
Q 43.84375 -1.421875 31.78125 -1.421875 
Q 19.734375 -1.421875 13.25 4.234375 
Q 6.78125 9.90625 6.78125 20.515625 
Q 6.78125 27.484375 10.78125 32.3125 
Q 14.796875 37.15625 21.921875 38.8125 
z
M 18.3125 54.390625 
Q 18.3125 48.734375 21.84375 45.5625 
Q 25.390625 42.390625 31.78125 42.390625 
Q 38.140625 42.390625 41.71875 45.5625 
Q 45.3125 48.734375 45.3125 54.390625 
Q 45.3125 60.0625 41.71875 63.234375 
Q 38.140625 66.40625 31.78125 66.40625 
Q 25.390625 66.40625 21.84375 63.234375 
Q 18.3125 60.0625 18.3125 54.390625 
z
" id="DejaVuSans-56"/>
      </defs>
      <g style="fill:#ffffff;" transform="translate(384.443173 239.238437)scale(0.1 -0.1)">
       <use xlink:href="#DejaVuSans-50"/>
       <use x="63.623047" xlink:href="#DejaVuSans-48"/>
       <use x="127.246094" xlink:href="#DejaVuSans-49"/>
       <use x="190.869141" xlink:href="#DejaVuSans-56"/>
      </g>
     </g>
    </g>
    <g id="xtick_6">
     <g id="line2d_6">
      <g>
       <use style="fill:#ffffff;stroke:#ffffff;stroke-width:0.8;" x="478.287361" xlink:href="#m8f01f32bda" y="224.64"/>
      </g>
     </g>
     <g id="text_6">
      <!-- 2019 -->
      <defs>
       <path d="M 10.984375 1.515625 
L 10.984375 10.5 
Q 14.703125 8.734375 18.5 7.8125 
Q 22.3125 6.890625 25.984375 6.890625 
Q 35.75 6.890625 40.890625 13.453125 
Q 46.046875 20.015625 46.78125 33.40625 
Q 43.953125 29.203125 39.59375 26.953125 
Q 35.25 24.703125 29.984375 24.703125 
Q 19.046875 24.703125 12.671875 31.3125 
Q 6.296875 37.9375 6.296875 49.421875 
Q 6.296875 60.640625 12.9375 67.421875 
Q 19.578125 74.21875 30.609375 74.21875 
Q 43.265625 74.21875 49.921875 64.515625 
Q 56.59375 54.828125 56.59375 36.375 
Q 56.59375 19.140625 48.40625 8.859375 
Q 40.234375 -1.421875 26.421875 -1.421875 
Q 22.703125 -1.421875 18.890625 -0.6875 
Q 15.09375 0.046875 10.984375 1.515625 
z
M 30.609375 32.421875 
Q 37.25 32.421875 41.125 36.953125 
Q 45.015625 41.5 45.015625 49.421875 
Q 45.015625 57.28125 41.125 61.84375 
Q 37.25 66.40625 30.609375 66.40625 
Q 23.96875 66.40625 20.09375 61.84375 
Q 16.21875 57.28125 16.21875 49.421875 
Q 16.21875 41.5 20.09375 36.953125 
Q 23.96875 32.421875 30.609375 32.421875 
z
" id="DejaVuSans-57"/>
      </defs>
      <g style="fill:#ffffff;" transform="translate(465.562361 239.238437)scale(0.1 -0.1)">
       <use xlink:href="#DejaVuSans-50"/>
       <use x="63.623047" xlink:href="#DejaVuSans-48"/>
       <use x="127.246094" xlink:href="#DejaVuSans-49"/>
       <use x="190.869141" xlink:href="#DejaVuSans-57"/>
      </g>
     </g>
    </g>
   </g>
   <g id="matplotlib.axis_2">
    <g id="ytick_1">
     <g id="line2d_7">
      <defs>
       <path d="M 0 0 
L -3.5 0 
" id="m876c58a4a6" style="stroke:#ffffff;stroke-width:0.8;"/>
      </defs>
      <g>
       <use style="fill:#ffffff;stroke:#ffffff;stroke-width:0.8;" x="33.2875" xlink:href="#m876c58a4a6" y="217.104336"/>
      </g>
     </g>
     <g id="text_7">
      <!-- 100 -->
      <g style="fill:#ffffff;" transform="translate(7.2 220.903555)scale(0.1 -0.1)">
       <use xlink:href="#DejaVuSans-49"/>
       <use x="63.623047" xlink:href="#DejaVuSans-48"/>
       <use x="127.246094" xlink:href="#DejaVuSans-48"/>
      </g>
     </g>
    </g>
    <g id="ytick_2">
     <g id="line2d_8">
      <g>
       <use style="fill:#ffffff;stroke:#ffffff;stroke-width:0.8;" x="33.2875" xlink:href="#m876c58a4a6" y="172.802963"/>
      </g>
     </g>
     <g id="text_8">
      <!-- 150 -->
      <g style="fill:#ffffff;" transform="translate(7.2 176.602182)scale(0.1 -0.1)">
       <use xlink:href="#DejaVuSans-49"/>
       <use x="63.623047" xlink:href="#DejaVuSans-53"/>
       <use x="127.246094" xlink:href="#DejaVuSans-48"/>
      </g>
     </g>
    </g>
    <g id="ytick_3">
     <g id="line2d_9">
      <g>
       <use style="fill:#ffffff;stroke:#ffffff;stroke-width:0.8;" x="33.2875" xlink:href="#m876c58a4a6" y="128.50159"/>
      </g>
     </g>
     <g id="text_9">
      <!-- 200 -->
      <g style="fill:#ffffff;" transform="translate(7.2 132.300809)scale(0.1 -0.1)">
       <use xlink:href="#DejaVuSans-50"/>
       <use x="63.623047" xlink:href="#DejaVuSans-48"/>
       <use x="127.246094" xlink:href="#DejaVuSans-48"/>
      </g>
     </g>
    </g>
    <g id="ytick_4">
     <g id="line2d_10">
      <g>
       <use style="fill:#ffffff;stroke:#ffffff;stroke-width:0.8;" x="33.2875" xlink:href="#m876c58a4a6" y="84.200217"/>
      </g>
     </g>
     <g id="text_10">
      <!-- 250 -->
      <g style="fill:#ffffff;" transform="translate(7.2 87.999436)scale(0.1 -0.1)">
       <use xlink:href="#DejaVuSans-50"/>
       <use x="63.623047" xlink:href="#DejaVuSans-53"/>
       <use x="127.246094" xlink:href="#DejaVuSans-48"/>
      </g>
     </g>
    </g>
    <g id="ytick_5">
     <g id="line2d_11">
      <g>
       <use style="fill:#ffffff;stroke:#ffffff;stroke-width:0.8;" x="33.2875" xlink:href="#m876c58a4a6" y="39.898844"/>
      </g>
     </g>
     <g id="text_11">
      <!-- 300 -->
      <defs>
       <path d="M 40.578125 39.3125 
Q 47.65625 37.796875 51.625 33 
Q 55.609375 28.21875 55.609375 21.1875 
Q 55.609375 10.40625 48.1875 4.484375 
Q 40.765625 -1.421875 27.09375 -1.421875 
Q 22.515625 -1.421875 17.65625 -0.515625 
Q 12.796875 0.390625 7.625 2.203125 
L 7.625 11.71875 
Q 11.71875 9.328125 16.59375 8.109375 
Q 21.484375 6.890625 26.8125 6.890625 
Q 36.078125 6.890625 40.9375 10.546875 
Q 45.796875 14.203125 45.796875 21.1875 
Q 45.796875 27.640625 41.28125 31.265625 
Q 36.765625 34.90625 28.71875 34.90625 
L 20.21875 34.90625 
L 20.21875 43.015625 
L 29.109375 43.015625 
Q 36.375 43.015625 40.234375 45.921875 
Q 44.09375 48.828125 44.09375 54.296875 
Q 44.09375 59.90625 40.109375 62.90625 
Q 36.140625 65.921875 28.71875 65.921875 
Q 24.65625 65.921875 20.015625 65.03125 
Q 15.375 64.15625 9.8125 62.3125 
L 9.8125 71.09375 
Q 15.4375 72.65625 20.34375 73.4375 
Q 25.25 74.21875 29.59375 74.21875 
Q 40.828125 74.21875 47.359375 69.109375 
Q 53.90625 64.015625 53.90625 55.328125 
Q 53.90625 49.265625 50.4375 45.09375 
Q 46.96875 40.921875 40.578125 39.3125 
z
" id="DejaVuSans-51"/>
      </defs>
      <g style="fill:#ffffff;" transform="translate(7.2 43.698062)scale(0.1 -0.1)">
       <use xlink:href="#DejaVuSans-51"/>
       <use x="63.623047" xlink:href="#DejaVuSans-48"/>
       <use x="127.246094" xlink:href="#DejaVuSans-48"/>
      </g>
     </g>
    </g>
   </g>
   <g id="line2d_12">
    <path clip-path="url(#pbb72ee2522)" d="M 459.396591 115.078274 
L 458.729858 120.350137 
L 458.285369 104.047232 
L 457.84088 101.123341 
L 457.174147 98.598163 
L 456.951903 99.041177 
L 456.729659 98.155149 
L 456.507414 96.515999 
L 456.28517 98.996875 
L 455.618437 97.84504 
L 454.951704 97.446327 
L 454.72946 96.072985 
L 454.062727 98.420958 
L 453.395993 114.325151 
L 453.173749 109.008986 
L 452.507016 108.16726 
L 452.284772 109.850712 
L 451.840283 107.502739 
L 451.618039 95.984382 
L 450.951306 98.110848 
L 450.729061 96.604601 
L 450.284573 98.952574 
L 450.062328 95.674272 
L 449.395595 101.034739 
L 449.173351 97.091916 
L 448.728862 92.573176 
L 448.506618 88.49745 
L 447.839885 90.402409 
L 447.61764 93.636409 
L 447.173152 95.231259 
L 446.950907 97.889341 
L 446.284174 98.775369 
L 446.06193 95.452766 
L 445.839686 96.294492 
L 445.617441 95.186957 
L 445.395197 93.503505 
L 444.728464 97.800738 
L 444.50622 97.091916 
L 444.283975 96.914711 
L 444.061731 86.946902 
L 443.839486 91.111231 
L 443.172753 91.06693 
L 442.728265 95.807177 
L 442.50602 87.478518 
L 442.283776 90.136601 
L 441.617043 94.30093 
L 441.394799 99.174081 
L 441.172554 94.256628 
L 440.95031 86.060874 
L 440.728066 90.180902 
L 439.394599 62.271037 
L 439.172355 61.828023 
L 438.505622 69.757969 
L 437.838889 56.733365 
L 437.616645 71.39712 
L 436.949912 67.055585 
L 436.727667 71.840134 
L 436.283179 68.82764 
L 436.060934 71.352819 
L 435.394201 73.479284 
L 435.171957 76.934792 
L 434.949712 74.586819 
L 434.505224 61.739421 
L 433.838491 64.574708 
L 433.616246 59.568653 
L 433.394002 66.834078 
L 433.171758 68.606133 
L 432.949513 72.061641 
L 432.28278 69.182051 
L 432.060536 69.049147 
L 431.616047 72.017339 
L 431.393803 79.548573 
L 430.72707 72.460353 
L 430.504826 67.188489 
L 430.060337 77.555011 
L 429.838092 74.764024 
L 429.171359 77.244901 
L 428.282382 89.915094 
L 427.615649 88.896162 
L 427.393405 86.415285 
L 427.17116 92.085861 
L 426.948916 90.712519 
L 426.726672 78.972655 
L 426.059939 50.974187 
L 425.837694 52.967749 
L 425.61545 46.987063 
L 425.393205 49.024926 
L 425.170961 45.037803 
L 424.281984 51.72731 
L 424.059739 46.322543 
L 423.615251 42.069611 
L 422.504029 49.556543 
L 422.281785 54.828406 
L 422.05954 54.429694 
L 421.392807 52.03742 
L 421.170563 52.126023 
L 420.50383 57.929502 
L 419.614852 63.068462 
L 419.392608 63.068462 
L 418.948119 59.568653 
L 418.281386 64.087393 
L 418.059142 63.821585 
L 417.836898 66.258161 
L 417.614653 62.226736 
L 417.392409 60.321777 
L 416.281187 76.447476 
L 416.058943 71.973038 
L 415.169965 77.2006 
L 414.947721 76.358874 
L 414.725477 72.504654 
L 414.280988 74.808326 
L 413.614255 64.353202 
L 413.392011 57.973804 
L 413.169766 58.948434 
L 412.947522 59.214242 
L 412.725278 61.119201 
L 412.058545 67.941613 
L 411.8363 63.467174 
L 411.614056 67.454298 
L 411.391811 62.802654 
L 411.169567 61.473612 
L 410.28059 62.182434 
L 410.058345 61.606516 
L 409.836101 62.04953 
L 409.613857 63.378571 
L 408.947124 65.859448 
L 408.724879 73.434983 
L 408.502635 69.492161 
L 408.280391 72.814764 
L 408.058146 68.296024 
L 406.502436 53.100653 
L 405.835703 59.169941 
L 405.613458 57.22068 
L 405.391214 57.486489 
L 405.16897 69.403558 
L 404.946725 63.732982 
L 404.279992 62.182434 
L 404.057748 50.221064 
L 403.835504 48.1832 
L 403.613259 36.354734 
L 403.391015 38.303994 
L 402.502037 36.133227 
L 402.279793 36.133227 
L 401.835304 32.057501 
L 401.168571 32.500514 
L 400.946327 35.069994 
L 400.724083 27.893171 
L 400.501838 25.367993 
L 400.279594 19.520212 
L 399.612861 17.083636 
L 399.390617 28.114678 
L 398.946128 26.342623 
L 398.723884 24.30476 
L 398.057151 28.424788 
L 397.390417 30.019637 
L 397.168173 28.469089 
L 396.50144 25.367993 
L 396.279196 34.051062 
L 396.056951 34.981391 
L 395.834707 34.62698 
L 394.94573 37.462268 
L 394.723485 39.765939 
L 394.501241 39.14572 
L 394.278997 39.322926 
L 394.056752 48.005995 
L 393.390019 51.550105 
L 393.167775 53.809475 
L 392.94553 53.676571 
L 392.723286 50.708379 
L 392.501042 41.360789 
L 391.612064 54.075283 
L 391.38982 62.093832 
L 391.167576 57.663694 
L 390.945331 58.461119 
L 390.278598 54.473995 
L 390.056354 51.328598 
L 389.83411 57.442187 
L 389.611865 50.75268 
L 389.389621 59.878763 
L 388.722888 58.771229 
L 388.500643 62.226736 
L 388.056155 63.688681 
L 387.83391 62.138133 
L 387.167177 75.428545 
L 386.944933 82.472463 
L 386.722689 83.402792 
L 386.500444 87.124107 
L 386.2782 98.022245 
L 385.611467 96.471697 
L 385.389223 92.661779 
L 385.166978 106.793917 
L 384.944734 106.350903 
L 384.72249 97.756437 
L 384.055756 106.085095 
L 383.611268 103.870026 
L 383.389023 104.62315 
L 383.166779 104.756054 
L 382.500046 110.338027 
L 382.277802 119.818521 
L 382.055557 123.805644 
L 381.833313 119.951425 
L 381.611069 125.754905 
L 380.722091 124.425864 
L 380.499847 122.476603 
L 380.277603 119.375507 
L 380.055358 119.995726 
L 379.388625 119.419808 
L 379.166381 117.86926 
L 378.944136 120.172932 
L 378.721892 121.014658 
L 378.499648 121.147562 
L 377.832915 119.995726 
L 377.61067 120.12863 
L 377.388426 124.115754 
L 377.166182 122.786713 
L 376.277204 123.362631 
L 376.05496 125.710603 
L 375.832716 129.742028 
L 375.610471 124.381562 
L 375.388227 131.469782 
L 374.721494 127.482658 
L 374.499249 117.692055 
L 374.277005 116.363014 
L 374.054761 114.147945 
L 373.832516 116.717425 
L 373.165783 119.154 
L 372.943539 117.824959 
L 372.721295 122.03359 
L 372.49905 117.824959 
L 372.276806 120.305836 
L 371.387829 123.406932 
L 371.165584 123.229727 
L 370.94334 131.425481 
L 370.721096 134.437974 
L 370.054362 130.628056 
L 369.832118 130.273645 
L 369.609874 131.115371 
L 369.387629 137.051755 
L 369.165385 134.437974 
L 368.276408 133.596248 
L 368.054163 131.558385 
L 367.831919 137.494769 
L 367.609675 131.912796 
L 366.942942 133.463344 
L 366.720697 136.830248 
L 366.498453 133.950659 
L 366.053964 147.329674 
L 365.387231 160.221373 
L 365.164987 167.486798 
L 364.720498 158.626524 
L 364.498254 154.683702 
L 363.831521 158.227811 
L 363.609276 158.050606 
L 363.387032 159.423948 
L 362.942543 155.481126 
L 362.27581 155.835537 
L 362.053566 156.500058 
L 361.831322 153.133153 
L 361.386833 155.082414 
L 360.7201 153.133153 
L 360.497855 153.930578 
L 360.275611 150.519372 
L 360.053367 151.759811 
L 359.831122 148.880222 
L 359.164389 151.361099 
L 358.942145 150.297866 
L 358.719901 151.759811 
L 358.275412 158.139209 
L 357.386435 169.834771 
L 357.16419 167.353894 
L 356.941946 172.758662 
L 356.719702 171.385319 
L 356.052968 172.227045 
L 355.830724 174.132004 
L 355.60848 173.556087 
L 355.386235 175.150936 
L 354.497258 171.784032 
L 354.052769 166.777976 
L 353.830525 166.733675 
L 353.608281 167.132387 
L 352.719303 164.740113 
L 352.497059 165.316031 
L 352.274815 167.088086 
L 352.05257 170.942306 
L 351.385837 168.904442 
L 351.163593 168.727237 
L 350.941348 167.885511 
L 350.719104 170.144881 
L 350.49686 168.417127 
L 349.830127 168.50573 
L 349.385638 173.33458 
L 349.163394 176.745785 
L 348.941149 176.87869 
L 348.274416 175.549648 
L 348.052172 178.960854 
L 347.829928 180.156991 
L 347.385439 174.752224 
L 346.718706 173.245977 
L 346.496461 175.018032 
L 346.274217 170.277785 
L 346.051973 168.860141 
L 345.829728 168.727237 
L 345.162995 170.45499 
L 344.718507 168.50573 
L 344.496262 169.214552 
L 344.274018 170.499292 
L 343.607285 170.7651 
L 343.385041 168.062716 
L 343.162796 167.309593 
L 342.940552 165.980552 
L 341.82933 170.942306 
L 341.607086 169.48036 
L 341.384841 171.296717 
L 341.162597 171.07521 
L 340.495864 171.651128 
L 340.27362 170.898004 
L 339.829131 174.442114 
L 339.606887 173.290278 
L 338.717909 172.359949 
L 338.273421 169.79047 
L 338.051176 171.961237 
L 337.384443 172.271347 
L 337.162199 170.100579 
L 335.606488 172.670059 
L 335.384244 172.271347 
L 335.162 172.315648 
L 334.939755 174.043402 
L 334.050778 171.385319 
L 333.828534 178.916553 
L 333.606289 176.435676 
L 333.384045 175.948361 
L 332.717312 177.410306 
L 332.495067 177.498909 
L 332.272823 180.865813 
L 332.050579 182.106252 
L 331.161601 184.232717 
L 330.939357 180.954416 
L 330.717113 180.422799 
L 330.494868 179.226662 
L 330.272624 178.783649 
L 329.605891 178.695046 
L 329.383647 180.688608 
L 329.161402 178.473539 
L 328.939158 183.390991 
L 328.716914 182.637868 
L 327.827936 182.327758 
L 327.605692 181.663238 
L 327.383447 180.245594 
L 327.161203 180.245594 
L 326.49447 181.530334 
L 326.272226 181.574635 
L 326.049981 182.770772 
L 325.827737 180.600005 
L 324.93876 178.163429 
L 324.716515 178.207731 
L 324.494271 176.214169 
L 324.272027 180.201293 
L 324.049782 179.226662 
L 323.383049 180.024087 
L 323.160805 183.745402 
L 322.93856 190.43491 
L 322.716316 191.542444 
L 322.494072 190.1248 
L 321.38285 191.985458 
L 321.160606 191.896855 
L 320.271628 193.713211 
L 320.049384 190.080499 
L 319.604895 192.649978 
L 319.382651 192.605677 
L 318.715918 191.985458 
L 318.493673 194.820746 
L 318.271429 192.69428 
L 318.049185 195.440965 
L 317.82694 195.175157 
L 317.160207 195.263759 
L 316.937963 194.776444 
L 316.715719 195.440965 
L 316.493474 195.440965 
L 316.27123 196.23839 
L 315.604497 197.611732 
L 315.382253 198.409157 
L 315.160008 199.738198 
L 314.937764 198.896472 
L 314.71552 202.04187 
L 313.826542 199.915404 
L 313.604298 197.966143 
L 313.382053 198.276253 
L 313.159809 195.573869 
L 312.493076 195.573869 
L 312.270832 195.440965 
L 312.048587 196.947212 
L 311.826343 196.415595 
L 311.604099 196.415595 
L 310.937366 195.92828 
L 310.715121 195.972581 
L 310.492877 197.345924 
L 310.270633 196.371294 
L 310.048388 196.149787 
L 309.381655 198.010445 
L 309.159411 197.700335 
L 308.937166 195.972581 
L 308.492678 198.542061 
L 307.825945 200.712828 
L 307.6037 203.725322 
L 307.381456 201.465952 
L 307.159212 201.776061 
L 306.936967 203.238007 
L 306.270234 199.295184 
L 306.04799 200.624226 
L 305.825746 198.231951 
L 305.603501 202.04187 
L 304.714524 200.579924 
L 304.492279 194.599239 
L 304.270035 197.700335 
L 304.047791 192.782883 
L 303.825546 192.295567 
L 303.158813 193.314499 
L 302.49208 182.903676 
L 302.047592 182.194854 
L 301.603103 181.707539 
L 301.380859 183.6568 
L 300.93637 172.802963 
L 300.714126 169.214552 
L 300.047392 170.587895 
L 299.825148 170.720799 
L 299.602904 168.727237 
L 299.158415 172.581456 
L 298.491682 169.967675 
L 298.269438 174.707922 
L 297.602705 171.341018 
L 296.935972 171.695429 
L 296.713727 172.005538 
L 296.491483 169.879073 
L 296.269239 180.068388 
L 296.046994 179.581073 
L 295.380261 182.017649 
L 295.158017 184.32132 
L 294.935772 175.682552 
L 294.713528 177.631813 
L 294.491284 181.08732 
L 293.824551 179.536772 
L 293.602306 182.637868 
L 293.380062 183.390991 
L 293.157818 183.435293 
L 292.935573 181.751841 
L 292.26884 181.796142 
L 292.046596 184.32132 
L 291.824352 183.922608 
L 291.379863 185.827567 
L 290.71313 181.929046 
L 290.490885 179.713977 
L 290.268641 179.713977 
L 290.046397 180.11269 
L 289.157419 180.245594 
L 288.935175 180.688608 
L 288.712931 181.441731 
L 288.490686 181.486032 
L 288.268442 182.549265 
L 287.601709 181.751841 
L 287.379465 181.264525 
L 287.15722 181.441731 
L 286.934976 182.017649 
L 286.712732 183.080882 
L 286.045998 180.555704 
L 285.60151 183.745402 
L 285.379265 183.390991 
L 284.490288 184.365622 
L 284.045799 183.6568 
L 283.823555 178.783649 
L 283.601311 179.093758 
L 282.712333 183.169485 
L 282.490089 185.428855 
L 282.0456 180.77721 
L 281.378867 179.758279 
L 280.934378 183.922608 
L 280.712134 189.504581 
L 280.48989 187.466718 
L 279.823157 189.194471 
L 279.600912 188.928663 
L 279.378668 187.112307 
L 279.156424 190.479211 
L 278.934179 190.567814 
L 278.267446 188.219841 
L 278.045202 188.219841 
L 277.822958 188.618553 
L 277.600713 187.954033 
L 277.378469 187.776827 
L 276.711736 188.219841 
L 276.489491 186.58069 
L 276.045003 187.068005 
L 275.822758 186.8908 
L 275.156025 186.181978 
L 274.933781 189.46028 
L 274.267048 194.111924 
L 273.600315 195.61817 
L 273.378071 193.403102 
L 273.155826 192.960088 
L 272.933582 194.554937 
L 272.711337 193.934718 
L 272.044604 194.333431 
L 271.82236 193.97902 
L 271.600116 193.181595 
L 271.377871 193.624609 
L 271.155627 192.162663 
L 270.488894 196.149787 
L 270.26665 194.997951 
L 270.044405 195.485266 
L 269.822161 199.959705 
L 269.599917 200.004006 
L 268.933184 199.206582 
L 268.266451 201.377349 
L 268.044206 201.200143 
L 267.377473 201.776061 
L 266.71074 197.833239 
L 266.488496 199.029376 
L 265.599518 199.428089 
L 265.377274 198.542061 
L 265.15503 199.073678 
L 264.932785 198.807869 
L 264.266052 199.782499 
L 264.043808 200.314116 
L 263.821564 201.776061 
L 263.377075 200.491321 
L 262.710342 201.067239 
L 262.488097 202.617787 
L 262.265853 202.086171 
L 261.821364 198.409157 
L 261.154631 199.339486 
L 260.932387 199.117979 
L 260.710143 197.257321 
L 260.265654 198.320554 
L 259.376677 199.295184 
L 259.154432 197.744636 
L 258.709943 199.383787 
L 257.598722 198.807869 
L 257.376477 200.845732 
L 257.154233 199.826801 
L 256.4875 201.42165 
L 256.265256 200.535623 
L 256.043011 200.402719 
L 255.820767 200.934335 
L 255.598523 198.320554 
L 254.93179 197.124417 
L 254.709545 198.276253 
L 254.487301 198.143349 
L 254.265057 200.004006 
L 254.042812 199.915404 
L 252.93159 199.871102 
L 252.709346 198.143349 
L 252.487102 199.47239 
L 251.820369 200.358417 
L 251.598124 203.105102 
L 251.37588 203.725322 
L 250.931391 203.238007 
L 250.264658 203.060801 
L 249.82017 202.174774 
L 249.597925 203.238007 
L 248.708948 205.364473 
L 248.486703 208.687076 
L 248.264459 208.332665 
L 248.042215 209.218692 
L 247.81997 213.958939 
L 247.153237 212.895706 
L 246.930993 211.610966 
L 246.708749 211.167952 
L 246.486504 211.212254 
L 246.26426 209.041486 
L 245.597527 210.636336 
L 245.375283 213.072911 
L 245.153038 213.560227 
L 244.930794 214.756364 
L 244.708549 211.788172 
L 244.041816 213.294418 
L 243.819572 212.452692 
L 243.597328 200.845732 
L 243.152839 195.92828 
L 242.486106 197.168718 
L 242.263862 197.966143 
L 242.041617 197.833239 
L 241.597129 193.536006 
L 240.930396 193.624609 
L 240.708151 196.592801 
L 240.485907 195.440965 
L 240.041418 195.573869 
L 239.374685 194.466335 
L 239.152441 197.833239 
L 238.930196 197.124417 
L 238.707952 193.713211 
L 238.485708 197.744636 
L 237.818975 191.852554 
L 237.59673 186.935101 
L 237.374486 185.561759 
L 236.929997 179.979786 
L 236.263264 177.720416 
L 236.04102 181.618936 
L 235.596531 174.264909 
L 235.374287 178.384936 
L 234.707554 175.992662 
L 234.485309 176.169868 
L 234.263065 176.036963 
L 234.040821 179.979786 
L 233.818576 178.074827 
L 232.929599 177.410306 
L 232.707355 179.891183 
L 232.48511 180.600005 
L 232.262866 179.093758 
L 231.596133 179.979786 
L 231.373889 179.713977 
L 231.151644 184.720033 
L 230.9294 187.112307 
L 230.707155 186.669293 
L 230.040422 187.688225 
L 229.818178 185.827567 
L 229.595934 188.618553 
L 229.373689 186.093375 
L 229.151445 185.783266 
L 228.484712 187.289512 
L 228.040223 185.030142 
L 227.817979 184.985841 
L 227.595735 183.834005 
L 226.929002 184.365622 
L 226.706757 186.137677 
L 226.262268 186.669293 
L 226.040024 187.909731 
L 225.373291 187.156608 
L 224.928802 191.631047 
L 224.706558 188.308444 
L 224.484314 192.162663 
L 223.373092 192.38417 
L 223.150848 194.333431 
L 222.928603 191.586745 
L 222.26187 194.200526 
L 222.039626 192.295567 
L 221.817382 188.972964 
L 221.595137 188.972964 
L 221.372893 188.17554 
L 220.70616 187.466718 
L 220.483915 185.29595 
L 220.261671 185.561759 
L 220.039427 185.384553 
L 219.817182 182.637868 
L 219.150449 183.612498 
L 218.705961 183.834005 
L 218.483716 182.194854 
L 218.261472 186.359183 
L 217.594739 186.979403 
L 217.372495 186.359183 
L 217.15025 186.979403 
L 216.928006 188.485649 
L 216.705761 186.492088 
L 216.039028 186.359183 
L 215.816784 187.55532 
L 215.59454 187.821129 
L 215.372295 190.036197 
L 215.150051 188.884362 
L 214.261074 190.479211 
L 213.816585 193.536006 
L 213.594341 193.092992 
L 212.705363 195.662472 
L 212.483119 194.95365 
L 212.260874 195.92828 
L 212.03863 194.510636 
L 211.371897 194.554937 
L 210.927408 196.637102 
L 210.705164 194.599239 
L 210.48292 195.795376 
L 209.816187 196.504198 
L 209.593942 196.061184 
L 209.371698 196.149787 
L 209.149454 198.542061 
L 208.927209 198.985075 
L 208.260476 199.206582 
L 208.038232 195.706773 
L 207.593743 203.636719 
L 207.371499 199.738198 
L 206.704766 201.022938 
L 206.482521 202.617787 
L 206.260277 201.776061 
L 206.038033 201.554554 
L 205.815788 203.946829 
L 205.149055 190.169102 
L 204.926811 187.954033 
L 204.704567 187.156608 
L 204.482322 186.846499 
L 204.260078 189.637485 
L 203.593345 188.662855 
L 203.371101 190.523512 
L 203.148856 187.821129 
L 202.926612 183.701101 
L 202.704367 182.593567 
L 202.037634 179.935484 
L 201.81539 178.340635 
L 201.593146 179.758279 
L 201.370901 178.739347 
L 201.148657 180.910115 
L 200.481924 181.486032 
L 200.25968 184.188416 
L 200.037435 182.859375 
L 199.815191 183.922608 
L 199.592947 183.834005 
L 198.926214 180.954416 
L 198.703969 180.910115 
L 198.25948 183.878307 
L 198.037236 180.11269 
L 197.148259 183.435293 
L 196.926014 183.302389 
L 196.70377 184.277019 
L 196.481526 184.498526 
L 195.592548 187.023704 
L 195.370304 186.181978 
L 195.14806 183.258087 
L 194.925815 186.093375 
L 194.259082 185.118745 
L 194.036838 184.232717 
L 193.814593 185.60606 
L 193.370105 190.922225 
L 192.481127 185.473156 
L 192.258883 187.688225 
L 192.036639 187.112307 
L 191.814394 186.093375 
L 191.147661 187.200909 
L 190.925417 188.219841 
L 190.703173 188.441348 
L 190.480928 191.675348 
L 190.258684 191.320937 
L 189.591951 192.162663 
L 189.369707 186.624992 
L 189.147462 184.675731 
L 188.925218 183.834005 
L 188.702973 186.226279 
L 188.03624 182.992279 
L 187.591752 184.011211 
L 187.147263 177.100196 
L 186.48053 176.125566 
L 186.258286 177.321703 
L 186.036041 173.954799 
L 185.813797 173.866196 
L 185.591553 175.062333 
L 184.92482 174.61932 
L 184.480331 176.391374 
L 184.258086 174.97373 
L 184.035842 174.61932 
L 183.369109 175.106635 
L 183.146865 176.081265 
L 182.702376 179.13806 
L 182.480132 178.695046 
L 181.813399 180.732909 
L 181.591154 183.6568 
L 181.36891 181.840443 
L 181.146666 177.631813 
L 180.924421 178.51784 
L 180.035444 179.80258 
L 179.813199 179.403868 
L 179.590955 179.935484 
L 179.368711 179.758279 
L 178.701978 175.239539 
L 178.479733 172.625758 
L 178.257489 173.113073 
L 178.035245 172.625758 
L 177.813 169.923374 
L 176.924023 164.562908 
L 176.701779 164.873017 
L 176.25729 162.613647 
L 175.590557 162.879456 
L 175.368313 170.986607 
L 174.923824 171.828333 
L 174.701579 171.518223 
L 173.590358 171.828333 
L 173.368113 173.866196 
L 173.145869 173.02447 
L 172.479136 176.56858 
L 172.034647 173.688991 
L 171.590159 175.28384 
L 170.923426 172.847265 
L 170.478937 167.619703 
L 170.256692 166.866579 
L 170.034448 168.594333 
L 169.367715 168.50573 
L 169.145471 163.942689 
L 168.923226 165.847648 
L 168.700982 166.379264 
L 168.478738 164.784415 
L 167.58976 164.562908 
L 167.367516 165.404634 
L 167.145272 160.797291 
L 166.923027 165.404634 
L 166.478539 168.461429 
L 166.256294 167.442497 
L 166.03405 170.543593 
L 165.811805 169.701867 
L 165.589561 167.885511 
L 165.367317 167.5311 
L 164.700584 164.208497 
L 164.478339 166.600771 
L 164.256095 166.733675 
L 163.811606 168.239922 
L 163.144873 166.24636 
L 162.922629 168.19562 
L 162.700385 168.948744 
L 162.255896 173.201676 
L 161.589163 170.676497 
L 161.366919 168.594333 
L 160.92243 163.543976 
L 160.700185 160.75299 
L 160.033452 165.094524 
L 159.811208 165.493237 
L 158.477742 162.923757 
L 158.255498 164.96162 
L 158.033253 165.714743 
L 157.811009 167.176689 
L 157.588765 166.999483 
L 156.922032 168.993045 
L 156.699787 167.796908 
L 156.477543 168.50573 
L 156.255298 168.151319 
L 156.033054 166.290661 
L 155.366321 167.841209 
L 155.144077 169.524662 
L 154.921832 174.176306 
L 154.699588 174.442114 
L 154.477344 170.189182 
L 153.810611 170.587895 
L 153.588366 172.182744 
L 153.366122 171.961237 
L 153.143878 173.644689 
L 152.921633 173.9991 
L 152.2549 175.59395 
L 151.810411 175.549648 
L 151.588167 174.30921 
L 151.365923 175.018032 
L 150.69919 175.106635 
L 150.476945 175.018032 
L 150.254701 177.233101 
L 150.032457 177.897621 
L 149.810212 171.385319 
L 149.143479 170.189182 
L 148.921235 167.796908 
L 148.698991 167.486798 
L 148.476746 168.50573 
L 148.254502 165.448935 
L 147.587769 162.968058 
L 147.365524 160.930195 
L 147.14328 161.063099 
L 146.921036 160.974497 
L 146.698791 164.341401 
L 146.032058 162.790853 
L 145.809814 163.056661 
L 145.58757 168.107018 
L 145.365325 169.081648 
L 145.143081 166.645072 
L 144.476348 166.822278 
L 144.254104 166.645072 
L 144.031859 165.847648 
L 143.809615 164.474305 
L 143.587371 164.031291 
L 142.698393 169.081648 
L 142.253904 165.493237 
L 142.03166 165.93625 
L 141.364927 163.145264 
L 140.920438 162.480743 
L 140.47595 160.620086 
L 139.809217 163.854086 
L 139.586972 166.202059 
L 139.364728 166.334963 
L 139.142484 167.176689 
L 138.920239 167.22099 
L 138.031262 165.404634 
L 137.586773 167.885511 
L 137.364529 168.638634 
L 136.697796 169.834771 
L 136.475551 170.720799 
L 135.808818 166.157757 
L 134.919841 162.835154 
L 134.475352 165.005922 
L 133.141886 164.96162 
L 132.919642 164.518606 
L 132.697397 164.828716 
L 132.030664 164.252798 
L 131.80842 163.67688 
L 131.586176 159.734058 
L 131.363931 159.999866 
L 131.141687 154.550797 
L 130.474954 156.322852 
L 130.030465 162.525045 
L 129.808221 164.430004 
L 129.585977 157.563291 
L 128.919244 155.481126 
L 128.696999 157.386085 
L 128.474755 161.683319 
L 128.25251 159.335346 
L 128.030266 159.866962 
L 127.363533 161.949127 
L 127.141289 161.993428 
L 126.919044 169.037346 
L 126.6968 168.018415 
L 126.474556 169.347456 
L 125.585578 172.359949 
L 125.363334 170.056278 
L 125.14109 170.189182 
L 124.918845 167.974114 
L 124.252112 167.974114 
L 123.807623 165.27173 
L 123.363135 168.904442 
L 122.474157 170.942306 
L 122.251913 171.784032 
L 122.029669 168.860141 
L 121.807424 171.119511 
L 121.140691 172.227045 
L 120.918447 169.125949 
L 120.696203 169.436059 
L 120.251714 167.929812 
L 119.584981 168.993045 
L 119.140492 170.233484 
L 118.696003 168.19562 
L 118.02927 169.701867 
L 117.807026 166.999483 
L 117.584782 166.777976 
L 117.362537 165.094524 
L 116.47356 163.366771 
L 116.251316 163.632579 
L 115.584583 171.208114 
L 114.917849 172.980169 
L 114.695605 167.974114 
L 114.473361 168.417127 
L 114.251116 165.094524 
L 114.028872 157.696195 
L 113.362139 156.987373 
L 113.139895 155.791236 
L 112.91765 151.228194 
L 112.695406 150.829482 
L 112.473162 152.645838 
L 111.806429 154.107784 
L 111.584184 157.031674 
L 111.36194 155.525428 
L 111.139696 157.474688 
L 110.917451 156.89877 
L 110.250718 161.860524 
L 109.806229 160.797291 
L 109.583985 157.696195 
L 109.361741 158.626524 
L 108.695008 160.664387 
L 108.472763 156.278551 
L 108.250519 155.658332 
L 108.028275 150.785181 
L 107.80603 154.019181 
L 107.139297 154.107784 
L 106.917053 169.214552 
L 106.694809 170.144881 
L 106.25032 175.018032 
L 105.583587 173.600388 
L 105.361342 173.777593 
L 105.139098 167.265292 
L 104.694609 167.088086 
L 104.027876 166.113456 
L 103.583388 170.056278 
L 103.361143 169.746168 
L 103.138899 172.182744 
L 102.472166 177.454607 
L 102.249922 177.941922 
L 102.027677 175.195237 
L 101.805433 175.992662 
L 101.583189 177.631813 
L 100.916455 177.233101 
L 100.694211 179.492471 
L 100.471967 177.587512 
L 100.249722 177.144498 
L 100.027478 175.726854 
L 98.916256 173.290278 
L 98.471768 170.277785 
L 97.805035 170.189182 
L 97.138302 165.847648 
L 96.916057 167.353894 
L 96.02708 166.202059 
L 95.804835 172.359949 
L 95.582591 170.100579 
L 94.693614 170.366388 
L 94.471369 170.056278 
L 94.249125 168.904442 
L 93.804636 171.518223 
L 93.137903 170.853703 
L 92.915659 171.429621 
L 92.693415 169.701867 
L 92.47117 169.037346 
L 92.248926 172.758662 
L 91.582193 174.575018 
L 91.359948 180.068388 
L 91.137704 179.226662 
L 90.91546 179.093758 
L 90.693215 179.13806 
L 90.248727 178.429238 
L 90.026482 178.650744 
L 89.804238 180.422799 
L 89.581994 180.511402 
L 89.359749 178.872251 
L 88.248528 179.403868 
L 88.026283 176.657183 
L 87.804039 177.100196 
L 87.581795 178.296333 
L 86.915061 178.739347 
L 86.692817 179.403868 
L 86.470573 180.865813 
L 86.248328 181.308827 
L 86.026084 185.251649 
L 85.359351 181.929046 
L 84.914862 181.840443 
L 84.470374 179.270964 
L 83.803641 179.891183 
L 83.359152 181.353128 
L 83.136908 181.486032 
L 82.914663 182.637868 
L 82.24793 181.175923 
L 82.025686 180.11269 
L 81.803441 178.074827 
L 81.581197 177.366005 
L 81.358953 178.473539 
L 80.69222 178.695046 
L 80.469975 180.644306 
L 80.247731 178.960854 
L 80.025487 178.872251 
L 79.803242 181.043019 
L 79.136509 180.77721 
L 78.914265 181.264525 
L 78.692021 179.758279 
L 78.469776 182.593567 
L 78.247532 180.467101 
L 77.580799 177.897621 
L 77.358554 174.397813 
L 77.13631 172.935867 
L 76.914066 174.707922 
L 76.691821 174.30921 
L 76.025088 176.169868 
L 75.5806 170.986607 
L 75.358355 170.986607 
L 75.136111 170.233484 
L 74.247134 166.379264 
L 74.024889 166.512168 
L 73.802645 167.043785 
L 73.580401 166.777976 
L 72.913667 167.176689 
L 72.691423 168.417127 
L 72.469179 163.499675 
L 72.246934 163.543976 
L 71.357957 165.670442 
L 71.135713 163.01236 
L 70.46898 168.638634 
L 69.802247 170.056278 
L 69.580002 175.018032 
L 69.357758 174.397813 
L 69.135514 177.454607 
L 68.913269 178.606443 
L 68.246536 177.100196 
L 68.024292 175.682552 
L 67.802047 175.461046 
L 67.579803 175.062333 
L 67.357559 175.726854 
L 66.690826 176.169868 
L 66.468581 175.771155 
L 66.246337 176.745785 
L 66.024093 175.638251 
L 65.801848 173.423182 
L 65.135115 173.777593 
L 64.912871 174.885128 
L 64.690627 177.188799 
L 64.468382 176.790087 
L 64.246138 179.536772 
L 63.579405 180.068388 
L 63.134916 176.922991 
L 62.912672 177.631813 
L 62.690427 174.840826 
L 61.80145 178.163429 
L 61.579206 177.85332 
L 61.356961 168.771538 
L 61.134717 166.999483 
L 60.467984 163.854086 
L 60.24574 163.632579 
L 59.801251 157.20888 
L 59.356762 155.525428 
L 58.912273 157.120277 
L 58.690029 160.398579 
L 58.467785 159.512551 
L 58.24554 161.816223 
L 58.023296 161.063099 
L 57.356563 160.531483 
L 57.134319 159.113839 
L 56.912074 165.050223 
L 56.68983 162.303538 
L 56.467586 164.2971 
L 55.800853 160.221373 
L 55.13412 165.670442 
L 54.911875 164.430004 
L 54.022898 163.809784 
L 53.800653 167.885511 
L 53.578409 167.664004 
L 53.578409 167.664004 
" style="fill:none;stroke:#8dd3c7;stroke-linecap:square;stroke-width:1.5;"/>
   </g>
   <g id="patch_3">
    <path d="M 33.2875 224.64 
L 33.2875 7.2 
" style="fill:none;stroke:#ffffff;stroke-linecap:square;stroke-linejoin:miter;stroke-width:0.8;"/>
   </g>
   <g id="patch_4">
    <path d="M 479.6875 224.64 
L 479.6875 7.2 
" style="fill:none;stroke:#ffffff;stroke-linecap:square;stroke-linejoin:miter;stroke-width:0.8;"/>
   </g>
   <g id="patch_5">
    <path d="M 33.2875 224.64 
L 479.6875 224.64 
" style="fill:none;stroke:#ffffff;stroke-linecap:square;stroke-linejoin:miter;stroke-width:0.8;"/>
   </g>
   <g id="patch_6">
    <path d="M 33.2875 7.2 
L 479.6875 7.2 
" style="fill:none;stroke:#ffffff;stroke-linecap:square;stroke-linejoin:miter;stroke-width:0.8;"/>
   </g>
  </g>
 </g>
 <defs>
  <clipPath id="pbb72ee2522">
   <rect height="217.44" width="446.4" x="33.2875" y="7.2"/>
  </clipPath>
 </defs>
</svg>
