<?xml version="1.0" encoding="utf-8" standalone="no"?>
<!DOCTYPE svg PUBLIC "-//W3C//DTD SVG 1.1//EN"
  "http://www.w3.org/Graphics/SVG/1.1/DTD/svg11.dtd">
<!-- Created with matplotlib (https://matplotlib.org/) -->
<svg height="248.518125pt" version="1.1" viewBox="0 0 486.8875 248.518125" width="486.8875pt" xmlns="http://www.w3.org/2000/svg" xmlns:xlink="http://www.w3.org/1999/xlink">
 <defs>
  <style type="text/css">
*{stroke-linecap:butt;stroke-linejoin:round;}
  </style>
 </defs>
 <g id="figure_1">
  <g id="patch_1">
   <path d="M 0 248.518125 
L 486.8875 248.518125 
L 486.8875 0 
L 0 0 
z
"/>
  </g>
  <g id="axes_1">
   <g id="patch_2">
    <path d="M 33.2875 224.64 
L 479.6875 224.64 
L 479.6875 7.2 
L 33.2875 7.2 
z
"/>
   </g>
   <g id="matplotlib.axis_1">
    <g id="xtick_1">
     <g id="line2d_1">
      <defs>
       <path d="M 0 0 
L 0 3.5 
" id="maea578e831" style="stroke:#ffffff;stroke-width:0.8;"/>
      </defs>
      <g>
       <use style="fill:#ffffff;stroke:#ffffff;stroke-width:0.8;" x="53.578409" xlink:href="#maea578e831" y="224.64"/>
      </g>
     </g>
     <g id="text_1">
      <!-- 0 -->
      <defs>
       <path d="M 31.78125 66.40625 
Q 24.171875 66.40625 20.328125 58.90625 
Q 16.5 51.421875 16.5 36.375 
Q 16.5 21.390625 20.328125 13.890625 
Q 24.171875 6.390625 31.78125 6.390625 
Q 39.453125 6.390625 43.28125 13.890625 
Q 47.125 21.390625 47.125 36.375 
Q 47.125 51.421875 43.28125 58.90625 
Q 39.453125 66.40625 31.78125 66.40625 
z
M 31.78125 74.21875 
Q 44.046875 74.21875 50.515625 64.515625 
Q 56.984375 54.828125 56.984375 36.375 
Q 56.984375 17.96875 50.515625 8.265625 
Q 44.046875 -1.421875 31.78125 -1.421875 
Q 19.53125 -1.421875 13.0625 8.265625 
Q 6.59375 17.96875 6.59375 36.375 
Q 6.59375 54.828125 13.0625 64.515625 
Q 19.53125 74.21875 31.78125 74.21875 
z
" id="DejaVuSans-48"/>
      </defs>
      <g style="fill:#ffffff;" transform="translate(50.397159 239.238437)scale(0.1 -0.1)">
       <use xlink:href="#DejaVuSans-48"/>
      </g>
     </g>
    </g>
    <g id="xtick_2">
     <g id="line2d_2">
      <g>
       <use style="fill:#ffffff;stroke:#ffffff;stroke-width:0.8;" x="119.35121" xlink:href="#maea578e831" y="224.64"/>
      </g>
     </g>
     <g id="text_2">
      <!-- 200 -->
      <defs>
       <path d="M 19.1875 8.296875 
L 53.609375 8.296875 
L 53.609375 0 
L 7.328125 0 
L 7.328125 8.296875 
Q 12.9375 14.109375 22.625 23.890625 
Q 32.328125 33.6875 34.8125 36.53125 
Q 39.546875 41.84375 41.421875 45.53125 
Q 43.3125 49.21875 43.3125 52.78125 
Q 43.3125 58.59375 39.234375 62.25 
Q 35.15625 65.921875 28.609375 65.921875 
Q 23.96875 65.921875 18.8125 64.3125 
Q 13.671875 62.703125 7.8125 59.421875 
L 7.8125 69.390625 
Q 13.765625 71.78125 18.9375 73 
Q 24.125 74.21875 28.421875 74.21875 
Q 39.75 74.21875 46.484375 68.546875 
Q 53.21875 62.890625 53.21875 53.421875 
Q 53.21875 48.921875 51.53125 44.890625 
Q 49.859375 40.875 45.40625 35.40625 
Q 44.1875 33.984375 37.640625 27.21875 
Q 31.109375 20.453125 19.1875 8.296875 
z
" id="DejaVuSans-50"/>
      </defs>
      <g style="fill:#ffffff;" transform="translate(109.80746 239.238437)scale(0.1 -0.1)">
       <use xlink:href="#DejaVuSans-50"/>
       <use x="63.623047" xlink:href="#DejaVuSans-48"/>
       <use x="127.246094" xlink:href="#DejaVuSans-48"/>
      </g>
     </g>
    </g>
    <g id="xtick_3">
     <g id="line2d_3">
      <g>
       <use style="fill:#ffffff;stroke:#ffffff;stroke-width:0.8;" x="185.124011" xlink:href="#maea578e831" y="224.64"/>
      </g>
     </g>
     <g id="text_3">
      <!-- 400 -->
      <defs>
       <path d="M 37.796875 64.3125 
L 12.890625 25.390625 
L 37.796875 25.390625 
z
M 35.203125 72.90625 
L 47.609375 72.90625 
L 47.609375 25.390625 
L 58.015625 25.390625 
L 58.015625 17.1875 
L 47.609375 17.1875 
L 47.609375 0 
L 37.796875 0 
L 37.796875 17.1875 
L 4.890625 17.1875 
L 4.890625 26.703125 
z
" id="DejaVuSans-52"/>
      </defs>
      <g style="fill:#ffffff;" transform="translate(175.580261 239.238437)scale(0.1 -0.1)">
       <use xlink:href="#DejaVuSans-52"/>
       <use x="63.623047" xlink:href="#DejaVuSans-48"/>
       <use x="127.246094" xlink:href="#DejaVuSans-48"/>
      </g>
     </g>
    </g>
    <g id="xtick_4">
     <g id="line2d_4">
      <g>
       <use style="fill:#ffffff;stroke:#ffffff;stroke-width:0.8;" x="250.896812" xlink:href="#maea578e831" y="224.64"/>
      </g>
     </g>
     <g id="text_4">
      <!-- 600 -->
      <defs>
       <path d="M 33.015625 40.375 
Q 26.375 40.375 22.484375 35.828125 
Q 18.609375 31.296875 18.609375 23.390625 
Q 18.609375 15.53125 22.484375 10.953125 
Q 26.375 6.390625 33.015625 6.390625 
Q 39.65625 6.390625 43.53125 10.953125 
Q 47.40625 15.53125 47.40625 23.390625 
Q 47.40625 31.296875 43.53125 35.828125 
Q 39.65625 40.375 33.015625 40.375 
z
M 52.59375 71.296875 
L 52.59375 62.3125 
Q 48.875 64.0625 45.09375 64.984375 
Q 41.3125 65.921875 37.59375 65.921875 
Q 27.828125 65.921875 22.671875 59.328125 
Q 17.53125 52.734375 16.796875 39.40625 
Q 19.671875 43.65625 24.015625 45.921875 
Q 28.375 48.1875 33.59375 48.1875 
Q 44.578125 48.1875 50.953125 41.515625 
Q 57.328125 34.859375 57.328125 23.390625 
Q 57.328125 12.15625 50.6875 5.359375 
Q 44.046875 -1.421875 33.015625 -1.421875 
Q 20.359375 -1.421875 13.671875 8.265625 
Q 6.984375 17.96875 6.984375 36.375 
Q 6.984375 53.65625 15.1875 63.9375 
Q 23.390625 74.21875 37.203125 74.21875 
Q 40.921875 74.21875 44.703125 73.484375 
Q 48.484375 72.75 52.59375 71.296875 
z
" id="DejaVuSans-54"/>
      </defs>
      <g style="fill:#ffffff;" transform="translate(241.353062 239.238437)scale(0.1 -0.1)">
       <use xlink:href="#DejaVuSans-54"/>
       <use x="63.623047" xlink:href="#DejaVuSans-48"/>
       <use x="127.246094" xlink:href="#DejaVuSans-48"/>
      </g>
     </g>
    </g>
    <g id="xtick_5">
     <g id="line2d_5">
      <g>
       <use style="fill:#ffffff;stroke:#ffffff;stroke-width:0.8;" x="316.669613" xlink:href="#maea578e831" y="224.64"/>
      </g>
     </g>
     <g id="text_5">
      <!-- 800 -->
      <defs>
       <path d="M 31.78125 34.625 
Q 24.75 34.625 20.71875 30.859375 
Q 16.703125 27.09375 16.703125 20.515625 
Q 16.703125 13.921875 20.71875 10.15625 
Q 24.75 6.390625 31.78125 6.390625 
Q 38.8125 6.390625 42.859375 10.171875 
Q 46.921875 13.96875 46.921875 20.515625 
Q 46.921875 27.09375 42.890625 30.859375 
Q 38.875 34.625 31.78125 34.625 
z
M 21.921875 38.8125 
Q 15.578125 40.375 12.03125 44.71875 
Q 8.5 49.078125 8.5 55.328125 
Q 8.5 64.0625 14.71875 69.140625 
Q 20.953125 74.21875 31.78125 74.21875 
Q 42.671875 74.21875 48.875 69.140625 
Q 55.078125 64.0625 55.078125 55.328125 
Q 55.078125 49.078125 51.53125 44.71875 
Q 48 40.375 41.703125 38.8125 
Q 48.828125 37.15625 52.796875 32.3125 
Q 56.78125 27.484375 56.78125 20.515625 
Q 56.78125 9.90625 50.3125 4.234375 
Q 43.84375 -1.421875 31.78125 -1.421875 
Q 19.734375 -1.421875 13.25 4.234375 
Q 6.78125 9.90625 6.78125 20.515625 
Q 6.78125 27.484375 10.78125 32.3125 
Q 14.796875 37.15625 21.921875 38.8125 
z
M 18.3125 54.390625 
Q 18.3125 48.734375 21.84375 45.5625 
Q 25.390625 42.390625 31.78125 42.390625 
Q 38.140625 42.390625 41.71875 45.5625 
Q 45.3125 48.734375 45.3125 54.390625 
Q 45.3125 60.0625 41.71875 63.234375 
Q 38.140625 66.40625 31.78125 66.40625 
Q 25.390625 66.40625 21.84375 63.234375 
Q 18.3125 60.0625 18.3125 54.390625 
z
" id="DejaVuSans-56"/>
      </defs>
      <g style="fill:#ffffff;" transform="translate(307.125863 239.238437)scale(0.1 -0.1)">
       <use xlink:href="#DejaVuSans-56"/>
       <use x="63.623047" xlink:href="#DejaVuSans-48"/>
       <use x="127.246094" xlink:href="#DejaVuSans-48"/>
      </g>
     </g>
    </g>
    <g id="xtick_6">
     <g id="line2d_6">
      <g>
       <use style="fill:#ffffff;stroke:#ffffff;stroke-width:0.8;" x="382.442414" xlink:href="#maea578e831" y="224.64"/>
      </g>
     </g>
     <g id="text_6">
      <!-- 1000 -->
      <defs>
       <path d="M 12.40625 8.296875 
L 28.515625 8.296875 
L 28.515625 63.921875 
L 10.984375 60.40625 
L 10.984375 69.390625 
L 28.421875 72.90625 
L 38.28125 72.90625 
L 38.28125 8.296875 
L 54.390625 8.296875 
L 54.390625 0 
L 12.40625 0 
z
" id="DejaVuSans-49"/>
      </defs>
      <g style="fill:#ffffff;" transform="translate(369.717414 239.238437)scale(0.1 -0.1)">
       <use xlink:href="#DejaVuSans-49"/>
       <use x="63.623047" xlink:href="#DejaVuSans-48"/>
       <use x="127.246094" xlink:href="#DejaVuSans-48"/>
       <use x="190.869141" xlink:href="#DejaVuSans-48"/>
      </g>
     </g>
    </g>
    <g id="xtick_7">
     <g id="line2d_7">
      <g>
       <use style="fill:#ffffff;stroke:#ffffff;stroke-width:0.8;" x="448.215215" xlink:href="#maea578e831" y="224.64"/>
      </g>
     </g>
     <g id="text_7">
      <!-- 1200 -->
      <g style="fill:#ffffff;" transform="translate(435.490215 239.238437)scale(0.1 -0.1)">
       <use xlink:href="#DejaVuSans-49"/>
       <use x="63.623047" xlink:href="#DejaVuSans-50"/>
       <use x="127.246094" xlink:href="#DejaVuSans-48"/>
       <use x="190.869141" xlink:href="#DejaVuSans-48"/>
      </g>
     </g>
    </g>
   </g>
   <g id="matplotlib.axis_2">
    <g id="ytick_1">
     <g id="line2d_8">
      <defs>
       <path d="M 0 0 
L -3.5 0 
" id="me60c8eaa21" style="stroke:#ffffff;stroke-width:0.8;"/>
      </defs>
      <g>
       <use style="fill:#ffffff;stroke:#ffffff;stroke-width:0.8;" x="33.2875" xlink:href="#me60c8eaa21" y="182.006408"/>
      </g>
     </g>
     <g id="text_8">
      <!-- 150 -->
      <defs>
       <path d="M 10.796875 72.90625 
L 49.515625 72.90625 
L 49.515625 64.59375 
L 19.828125 64.59375 
L 19.828125 46.734375 
Q 21.96875 47.46875 24.109375 47.828125 
Q 26.265625 48.1875 28.421875 48.1875 
Q 40.625 48.1875 47.75 41.5 
Q 54.890625 34.8125 54.890625 23.390625 
Q 54.890625 11.625 47.5625 5.09375 
Q 40.234375 -1.421875 26.90625 -1.421875 
Q 22.3125 -1.421875 17.546875 -0.640625 
Q 12.796875 0.140625 7.71875 1.703125 
L 7.71875 11.625 
Q 12.109375 9.234375 16.796875 8.0625 
Q 21.484375 6.890625 26.703125 6.890625 
Q 35.15625 6.890625 40.078125 11.328125 
Q 45.015625 15.765625 45.015625 23.390625 
Q 45.015625 31 40.078125 35.4375 
Q 35.15625 39.890625 26.703125 39.890625 
Q 22.75 39.890625 18.8125 39.015625 
Q 14.890625 38.140625 10.796875 36.28125 
z
" id="DejaVuSans-53"/>
      </defs>
      <g style="fill:#ffffff;" transform="translate(7.2 185.805627)scale(0.1 -0.1)">
       <use xlink:href="#DejaVuSans-49"/>
       <use x="63.623047" xlink:href="#DejaVuSans-53"/>
       <use x="127.246094" xlink:href="#DejaVuSans-48"/>
      </g>
     </g>
    </g>
    <g id="ytick_2">
     <g id="line2d_9">
      <g>
       <use style="fill:#ffffff;stroke:#ffffff;stroke-width:0.8;" x="33.2875" xlink:href="#me60c8eaa21" y="135.0867"/>
      </g>
     </g>
     <g id="text_9">
      <!-- 200 -->
      <g style="fill:#ffffff;" transform="translate(7.2 138.885919)scale(0.1 -0.1)">
       <use xlink:href="#DejaVuSans-50"/>
       <use x="63.623047" xlink:href="#DejaVuSans-48"/>
       <use x="127.246094" xlink:href="#DejaVuSans-48"/>
      </g>
     </g>
    </g>
    <g id="ytick_3">
     <g id="line2d_10">
      <g>
       <use style="fill:#ffffff;stroke:#ffffff;stroke-width:0.8;" x="33.2875" xlink:href="#me60c8eaa21" y="88.166993"/>
      </g>
     </g>
     <g id="text_10">
      <!-- 250 -->
      <g style="fill:#ffffff;" transform="translate(7.2 91.966212)scale(0.1 -0.1)">
       <use xlink:href="#DejaVuSans-50"/>
       <use x="63.623047" xlink:href="#DejaVuSans-53"/>
       <use x="127.246094" xlink:href="#DejaVuSans-48"/>
      </g>
     </g>
    </g>
    <g id="ytick_4">
     <g id="line2d_11">
      <g>
       <use style="fill:#ffffff;stroke:#ffffff;stroke-width:0.8;" x="33.2875" xlink:href="#me60c8eaa21" y="41.247286"/>
      </g>
     </g>
     <g id="text_11">
      <!-- 300 -->
      <defs>
       <path d="M 40.578125 39.3125 
Q 47.65625 37.796875 51.625 33 
Q 55.609375 28.21875 55.609375 21.1875 
Q 55.609375 10.40625 48.1875 4.484375 
Q 40.765625 -1.421875 27.09375 -1.421875 
Q 22.515625 -1.421875 17.65625 -0.515625 
Q 12.796875 0.390625 7.625 2.203125 
L 7.625 11.71875 
Q 11.71875 9.328125 16.59375 8.109375 
Q 21.484375 6.890625 26.8125 6.890625 
Q 36.078125 6.890625 40.9375 10.546875 
Q 45.796875 14.203125 45.796875 21.1875 
Q 45.796875 27.640625 41.28125 31.265625 
Q 36.765625 34.90625 28.71875 34.90625 
L 20.21875 34.90625 
L 20.21875 43.015625 
L 29.109375 43.015625 
Q 36.375 43.015625 40.234375 45.921875 
Q 44.09375 48.828125 44.09375 54.296875 
Q 44.09375 59.90625 40.109375 62.90625 
Q 36.140625 65.921875 28.71875 65.921875 
Q 24.65625 65.921875 20.015625 65.03125 
Q 15.375 64.15625 9.8125 62.3125 
L 9.8125 71.09375 
Q 15.4375 72.65625 20.34375 73.4375 
Q 25.25 74.21875 29.59375 74.21875 
Q 40.828125 74.21875 47.359375 69.109375 
Q 53.90625 64.015625 53.90625 55.328125 
Q 53.90625 49.265625 50.4375 45.09375 
Q 46.96875 40.921875 40.578125 39.3125 
z
" id="DejaVuSans-51"/>
      </defs>
      <g style="fill:#ffffff;" transform="translate(7.2 45.046504)scale(0.1 -0.1)">
       <use xlink:href="#DejaVuSans-51"/>
       <use x="63.623047" xlink:href="#DejaVuSans-48"/>
       <use x="127.246094" xlink:href="#DejaVuSans-48"/>
      </g>
     </g>
    </g>
   </g>
   <g id="line2d_12">
    <path clip-path="url(#p8e1b589ed8)" d="M 53.578409 189.185123 
L 53.907273 189.70124 
L 54.236137 178.909707 
L 54.565001 181.161853 
L 55.222729 180.458058 
L 55.551593 184.023955 
L 55.880457 179.003547 
L 56.209321 181.771809 
L 56.538185 180.223459 
L 56.867049 177.689795 
L 57.195913 179.801182 
L 57.524777 179.660423 
L 57.853641 178.205912 
L 58.511369 186.323021 
L 58.840233 193.501736 
L 59.169097 191.437269 
L 59.497961 191.953386 
L 59.826825 192.704101 
L 60.813417 203.730232 
L 61.142281 202.651079 
L 61.471145 203.167196 
L 61.800009 208.375283 
L 62.128873 205.090904 
L 62.457737 211.425064 
L 62.786601 212.973415 
L 63.115465 208.93832 
L 63.444329 211.471984 
L 63.773193 210.064393 
L 64.102057 214.240247 
L 64.430921 212.691897 
L 64.759785 212.363459 
L 65.088649 214.756364 
L 65.746377 209.266758 
L 66.075241 208.328364 
L 66.404105 206.545415 
L 66.732969 208.375283 
L 67.061833 208.703721 
L 67.390697 206.733094 
L 67.719561 206.967692 
L 68.048425 207.999926 
L 68.377289 206.545415 
L 68.706153 206.498495 
L 69.035017 207.014612 
L 69.363881 207.014612 
L 69.692745 207.577648 
L 70.021609 205.982378 
L 70.350473 206.123137 
L 70.679337 206.123137 
L 71.008201 208.98524 
L 71.337065 208.656802 
L 71.665929 210.721269 
L 71.994793 211.237386 
L 72.323657 212.973415 
L 72.652521 209.642116 
L 72.981385 210.53359 
L 73.310249 209.125999 
L 73.639113 208.281444 
L 73.967977 206.826933 
L 74.296841 205.982378 
L 74.625705 205.982378 
L 74.954569 205.278583 
L 75.283433 205.7947 
L 75.612297 205.70086 
L 75.941161 205.982378 
L 76.270025 203.073356 
L 76.598889 205.325502 
L 76.927753 202.322641 
L 77.256617 202.979517 
L 77.585481 203.026437 
L 77.914345 202.041123 
L 78.243209 200.305094 
L 78.572073 204.15251 
L 78.900937 202.744919 
L 79.229801 202.228802 
L 79.558665 202.322641 
L 79.887529 201.525006 
L 80.216393 200.352013 
L 80.545257 201.853444 
L 80.874121 200.680451 
L 81.202985 193.595576 
L 81.531849 189.65432 
L 81.860713 188.809765 
L 82.189578 189.841999 
L 82.518442 185.619225 
L 82.847306 187.730612 
L 83.17617 187.683692 
L 83.505034 189.560481 
L 83.833898 190.264276 
L 84.162762 192.563342 
L 84.491626 191.29651 
L 84.82049 191.24959 
L 85.149354 189.888919 
L 85.478218 189.888919 
L 85.807082 191.390349 
L 86.135946 192.094145 
L 86.46481 192.422583 
L 86.793674 193.220218 
L 87.122538 188.01213 
L 87.451402 190.358116 
L 87.780266 188.246729 
L 88.10913 188.340568 
L 88.437994 188.809765 
L 88.766858 190.076598 
L 89.095722 190.639634 
L 89.424586 194.111692 
L 89.75345 191.859546 
L 90.082314 190.545795 
L 90.411178 186.979897 
L 90.740042 186.886057 
L 91.068906 185.337707 
L 91.39777 185.853824 
L 91.726634 188.481327 
L 92.055498 180.504977 
L 92.384362 180.927255 
L 92.713226 183.32016 
L 93.04209 181.490291 
L 93.370954 181.443371 
L 93.699818 181.865649 
L 94.028682 181.490291 
L 94.357546 180.223459 
L 94.68641 179.519663 
L 95.015274 179.144306 
L 95.344138 181.443371 
L 95.673002 181.114933 
L 96.001866 178.815868 
L 96.659594 181.537211 
L 97.317322 183.742437 
L 97.97505 179.98886 
L 98.303914 180.786495 
L 98.632778 180.176539 
L 98.961642 180.411138 
L 99.290506 178.48743 
L 99.61937 180.03578 
L 99.948234 179.097386 
L 100.277098 174.780773 
L 100.605962 176.188364 
L 100.934826 176.985999 
L 101.26369 179.848101 
L 101.592554 179.566583 
L 101.921418 178.205912 
L 102.250282 177.455196 
L 102.579146 178.252831 
L 102.90801 179.519663 
L 103.236874 177.689795 
L 103.565738 177.830554 
L 103.894602 179.331985 
L 104.223466 184.352393 
L 104.55233 182.475605 
L 104.881194 184.070875 
L 105.538922 189.795079 
L 105.867786 188.528247 
L 106.19665 184.91543 
L 106.525514 186.323021 
L 106.854378 186.182262 
L 107.512106 179.754262 
L 107.84097 177.455196 
L 108.169834 177.361357 
L 108.498698 179.191225 
L 108.827562 176.79832 
L 109.156426 177.689795 
L 109.48529 177.877474 
L 109.814154 180.03578 
L 110.143018 175.953766 
L 110.471882 174.076977 
L 110.800746 173.467021 
L 111.12961 174.311576 
L 111.458474 176.000685 
L 111.787338 175.578408 
L 112.116202 175.625328 
L 112.445066 177.549036 
L 113.102794 184.493152 
L 113.431658 182.804043 
L 113.760522 183.413999 
L 114.089386 181.396452 
L 114.41825 180.504977 
L 114.747114 181.959488 
L 115.075978 176.235284 
L 115.404842 178.862787 
L 115.733706 174.733853 
L 116.06257 166.475985 
L 116.391434 163.707722 
L 116.720298 159.719547 
L 117.049162 158.171197 
L 117.378026 159.297269 
L 117.70689 156.669766 
L 118.035754 159.719547 
L 118.364618 158.405795 
L 118.693482 162.018613 
L 119.022346 161.174058 
L 119.35121 163.238525 
L 120.008938 161.174058 
L 120.337802 164.739956 
L 120.666666 164.03616 
L 120.99553 163.660802 
L 121.653258 167.836656 
L 121.982122 166.382145 
L 122.310986 166.569824 
L 122.63985 162.816248 
L 123.626442 176.376043 
L 123.955306 168.681211 
L 124.613034 140.857824 
L 124.941898 143.907605 
L 125.270762 140.341708 
L 125.599626 138.699518 
L 125.92849 144.611401 
L 126.257354 138.32416 
L 126.586218 140.482467 
L 126.915082 141.373941 
L 127.243946 144.142204 
L 127.57281 137.854963 
L 127.901674 136.963489 
L 128.230538 137.338846 
L 128.559402 141.373941 
L 128.888266 138.183401 
L 129.21713 129.503255 
L 129.545994 129.690934 
L 129.874858 128.611781 
L 130.532586 123.779051 
L 130.86145 128.236423 
L 131.190314 123.779051 
L 131.519178 125.186642 
L 132.176906 119.884715 
L 132.50577 122.230701 
L 132.834634 123.638292 
L 133.163498 134.007547 
L 133.492362 138.230321 
L 133.821226 130.723168 
L 134.15009 136.400452 
L 134.478954 132.130759 
L 134.807818 129.644014 
L 135.136682 129.034058 
L 135.465546 130.441649 
L 135.79441 126.218876 
L 136.123274 126.078117 
L 136.452138 127.298029 
L 136.781002 127.15727 
L 137.109866 126.265795 
L 137.43873 123.825971 
L 137.767594 125.46816 
L 138.096458 126.078117 
L 138.425322 125.421241 
L 138.754186 128.70562 
L 139.411914 132.177679 
L 139.740778 126.031197 
L 140.069642 130.113211 
L 140.398506 125.890438 
L 140.72737 115.84962 
L 141.056234 109.937737 
L 141.385098 109.796978 
L 141.713962 108.999343 
L 142.37169 111.345329 
L 142.700554 102.524424 
L 143.029418 111.626847 
L 143.358282 112.096044 
L 143.687146 97.128657 
L 144.01601 101.163752 
L 144.344874 102.805942 
L 144.673738 91.263694 
L 145.002602 87.322438 
L 145.331466 86.337124 
L 145.66033 78.876891 
L 145.989194 64.800979 
L 146.318058 66.443169 
L 146.975786 64.894818 
L 147.30465 61.235081 
L 147.633514 62.408074 
L 147.962378 52.742614 
L 148.291242 59.82749 
L 148.620106 53.35257 
L 149.277834 60.906643 
L 149.606698 60.062088 
L 149.935562 64.754059 
L 150.264426 56.261592 
L 150.59329 52.085738 
L 150.922154 42.795636 
L 151.251018 52.695694 
L 151.579882 55.839315 
L 151.908747 55.980074 
L 152.237611 53.587169 
L 152.566475 49.833592 
L 152.895339 40.637329 
L 153.224203 40.449651 
L 153.553067 41.106527 
L 154.210795 35.66384 
L 154.539659 36.039198 
L 154.868523 35.053884 
L 155.197387 25.857622 
L 155.526251 29.142001 
L 155.855115 30.784191 
L 156.183979 30.737271 
L 156.841707 29.095081 
L 157.170571 24.731549 
L 157.499435 26.889855 
L 158.157163 28.766644 
L 158.486027 17.083636 
L 158.814891 19.66422 
L 159.143755 25.857622 
L 159.472619 28.532045 
L 159.801483 36.133038 
L 160.130347 33.411695 
L 160.459211 32.942497 
L 160.788075 34.490848 
L 161.116939 37.259111 
L 161.445803 37.259111 
L 161.774667 39.558176 
L 162.103531 37.493709 
L 162.432395 50.021271 
L 162.761259 52.179577 
L 163.090123 64.847898 
L 163.418987 66.490088 
L 163.747851 72.495811 
L 164.076715 59.87441 
L 164.405579 59.592891 
L 164.734443 61.657358 
L 165.063307 55.229358 
L 166.049899 64.144103 
L 166.707627 76.108628 
L 167.036491 72.58965 
L 167.365355 76.765504 
L 167.694219 68.742234 
L 168.023083 66.114731 
L 168.351947 64.707139 
L 168.680811 64.237942 
L 169.009675 64.847898 
L 169.338539 64.097183 
L 169.667403 65.504774 
L 169.996267 70.431344 
L 170.325131 66.20857 
L 170.653995 70.94746 
L 170.982859 63.721826 
L 171.311723 61.704278 
L 171.640587 61.42276 
L 171.969451 60.390526 
L 172.298315 67.146964 
L 172.627179 78.220015 
L 173.284907 75.78019 
L 173.613771 79.862205 
L 173.942635 80.753679 
L 174.271499 76.718584 
L 174.600363 75.217154 
L 174.929227 79.956044 
L 175.258091 62.877271 
L 175.586955 64.894818 
L 175.915819 69.164512 
L 176.244683 66.583928 
L 176.573547 66.865446 
L 176.902411 62.079636 
L 177.560139 65.786293 
L 177.889003 65.786293 
L 178.217867 64.237942 
L 178.546731 60.343607 
L 178.875595 59.123694 
L 179.533323 54.197125 
L 179.862187 54.103286 
L 180.191051 56.63695 
L 180.519915 57.059227 
L 180.848779 51.475782 
L 181.177643 49.505154 
L 181.506507 48.660599 
L 181.835371 43.546351 
L 182.493099 53.774848 
L 182.821963 52.695694 
L 183.150827 46.689972 
L 183.479691 50.912745 
L 183.808555 48.754439 
L 184.137419 55.088599 
L 184.466283 52.977213 
L 184.795147 82.630468 
L 185.124011 95.06419 
L 185.452875 96.518701 
L 185.781739 90.512978 
L 186.110603 93.140482 
L 186.439467 94.219635 
L 188.083787 78.173095 
L 188.412651 81.129037 
L 189.070379 70.149825 
L 189.399243 75.733271 
L 189.728107 83.240424 
L 190.056971 75.264074 
L 190.714699 72.120453 
L 191.043563 72.261212 
L 191.372427 75.310993 
L 191.701291 71.651256 
L 192.030155 69.774468 
L 192.359019 62.079636 
L 192.687883 67.381563 
L 193.016747 64.378701 
L 193.674475 77.985417 
L 194.003339 80.472161 
L 194.332203 76.812424 
L 194.989931 71.885855 
L 195.647659 75.076395 
L 195.976523 70.009066 
L 196.305387 74.607198 
L 196.634251 59.076774 
L 196.963115 62.548833 
L 197.620843 72.871168 
L 197.949707 64.472541 
L 198.278571 64.941738 
L 199.265163 79.815285 
L 199.594027 94.501154 
L 199.922891 90.137621 
L 200.251755 98.817767 
L 200.580619 104.025854 
L 201.238347 94.454234 
L 201.567211 91.639051 
L 201.896075 100.459956 
L 202.224939 98.395489 
L 202.553803 95.439548 
L 202.882667 95.486467 
L 203.211531 91.076015 
L 203.540395 101.632949 
L 203.869259 101.820628 
L 204.198123 102.571343 
L 204.526987 98.020132 
L 205.184715 100.976073 
L 205.513579 100.084599 
L 205.842443 103.603577 
L 206.171307 102.665183 
L 206.500171 99.85 
L 206.829035 98.160891 
L 207.157899 94.735752 
L 207.486763 92.718205 
L 208.473355 105.996482 
L 208.802219 100.319197 
L 209.131083 103.791256 
L 209.788811 101.304511 
L 210.117675 102.899781 
L 210.446539 100.647635 
L 210.775403 112.846759 
L 211.433131 115.333504 
L 211.761995 113.550555 
L 212.090859 114.442029 
L 212.419723 120.072394 
L 212.748587 113.832073 
L 213.077451 103.228219 
L 213.406315 100.741475 
L 213.735179 102.195986 
L 214.064043 102.336745 
L 214.392907 102.618263 
L 214.721771 103.838175 
L 215.050635 101.210672 
L 215.379499 102.946701 
L 215.708363 103.885095 
L 216.037227 103.415898 
L 216.694955 109.187022 
L 217.352683 126.453474 
L 217.681547 120.870029 
L 217.681547 120.870029 
" style="fill:none;stroke:#8dd3c7;stroke-linecap:square;stroke-width:1.5;"/>
   </g>
   <g id="line2d_13">
    <path clip-path="url(#p8e1b589ed8)" d="M 218.010411 120.870029 
L 459.396591 120.870029 
L 459.396591 120.870029 
" style="fill:none;stroke:#008000;stroke-linecap:square;stroke-width:1.5;"/>
   </g>
   <g id="patch_3">
    <path d="M 33.2875 224.64 
L 33.2875 7.2 
" style="fill:none;stroke:#ffffff;stroke-linecap:square;stroke-linejoin:miter;stroke-width:0.8;"/>
   </g>
   <g id="patch_4">
    <path d="M 479.6875 224.64 
L 479.6875 7.2 
" style="fill:none;stroke:#ffffff;stroke-linecap:square;stroke-linejoin:miter;stroke-width:0.8;"/>
   </g>
   <g id="patch_5">
    <path d="M 33.2875 224.64 
L 479.6875 224.64 
" style="fill:none;stroke:#ffffff;stroke-linecap:square;stroke-linejoin:miter;stroke-width:0.8;"/>
   </g>
   <g id="patch_6">
    <path d="M 33.2875 7.2 
L 479.6875 7.2 
" style="fill:none;stroke:#ffffff;stroke-linecap:square;stroke-linejoin:miter;stroke-width:0.8;"/>
   </g>
  </g>
 </g>
 <defs>
  <clipPath id="p8e1b589ed8">
   <rect height="217.44" width="446.4" x="33.2875" y="7.2"/>
  </clipPath>
 </defs>
</svg>
